<?xml version="1.0" encoding="UTF-8" standalone="no"?>
<svg width="256px" height="256px" viewBox="0 0 256 256" version="1.1" xmlns="http://www.w3.org/2000/svg" xmlns:xlink="http://www.w3.org/1999/xlink" aria-labeledby="title">
  <title id="title">Chaiseraugschter Fasnacht</title>
  <desc>Three overlayed pieces of confetti, reminiscent of carnivals.</desc>
  <g transform="translate(14.000000, 30.000000)" fill="#fff">
    <path d="M35.685349,111.041599 C34.1881421,116.575203 33.3870968,122.413359 33.3870968,128.446667 C33.3870968,163.763435 60.8349301,192.393333 94.6935484,192.393333 C112.761252,192.393333 129.003468,184.2409 140.223616,171.270281 L140.223616,171.270281 L116.711114,163.174277 L111.038003,161.220869 L112.991412,155.547757 C113.530932,153.980876 113.989895,152.100821 114.361256,149.982598 C114.839224,147.25629 115.148708,144.288284 115.316789,141.292143 C115.37797,140.201562 115.416382,139.174365 115.436365,138.235486 C115.449298,137.627786 115.452724,137.156014 115.45588,136.511753 C115.701187,130.603586 111.894668,122.245624 107.392636,118.823104 L106.763971,118.27202 C106.560722,118.067116 106.026976,117.586407 105.180472,116.917667 C104.67218,121.411337 104.664286,126.088039 105.419594,130.3716 L106.451168,136.221948 L100.611373,137.311677 C88.6177845,139.549728 75.6794249,141.917389 62.8204191,144.226513 L56.8962715,145.290328 L55.8510995,139.362863 C55.3061177,136.272118 54.2331272,132.945825 52.7838007,129.578068 C51.9959753,127.747422 51.1495997,126.025823 50.3065807,124.473804 C50.0151106,123.9372 49.7469444,123.463411 49.5098696,123.059643 C49.3765841,122.83264 49.2895907,122.689278 49.2566769,122.636626 L49.0382369,122.257032 C46.654982,117.741954 40.8594434,112.996705 35.685349,111.041599 Z"></path>
    <path d="M134.586243,67.1421235 C140.608946,65.5460171 146.633549,61.7145764 149.731757,56.9996494 C149.731757,56.9996494 156.289241,48.7212258 159.919276,37.6850521 L196.357212,50.2316398 C193.449855,58.6752167 193.57102,70.9721475 193.57102,70.9721475 C193.248842,78.7317432 197.848313,89.0111242 203.997944,93.6861766 C203.997944,93.6861766 209.801427,99.5369482 220.144674,103.098415 L206.393352,143.035155 C194.876891,139.069719 187.490615,140.831001 187.490615,140.831001 C179.766546,141.287018 169.655221,146.64319 165.078271,152.922169 C165.078271,152.922169 158.383599,160.515019 155.101216,170.047754 C143.638097,166.227826 131.19196,162.032778 118.734806,157.787225 C121.959117,148.423145 121.394844,137.692601 121.394844,137.692601 C121.553927,129.922926 116.938271,119.503217 110.927041,114.635216 C110.927041,114.635216 109.192254,112.846214 106.201341,110.663362 C107.573903,105.044934 112.265148,98.1555455 116.887671,95.2244095 L117.332469,94.9423639 L117.721327,94.5871397 C118.046191,94.3325921 118.343768,94.1153062 118.709554,93.8700864 C119.840681,93.1117876 121.252977,92.331191 122.953129,91.5873469 C125.650483,90.4072108 128.76617,89.4559079 132.317782,88.8296628 L138.226628,87.7877738 L137.184739,81.8789273 L134.586243,67.1421235 Z"></path>
    <path d="M29.824312,48.0207101 C37.2667619,45.899158 45.0155073,38.1272021 46.9407955,30.579042 C46.9407955,30.579042 50.4458269,20.616731 50.2850655,9 L88.8225806,9 C88.8225806,17.9301015 92.9406334,29.5176306 92.9406334,29.5176306 C95.1622849,36.9593635 102.857809,45.1812681 110.194448,47.5994928 C110.194448,47.5994928 117.586574,51.2420768 128.525806,51.242078 L128.525806,93.48 C116.345759,93.48 109.935315,97.550061 109.935315,97.550061 C102.780529,100.495944 94.9638823,108.85223 92.6805269,116.27923 C92.6805269,116.27923 88.8225806,125.637983 88.8225806,135.72 C76.7403423,135.840214 63.6065151,135.925784 50.4458269,135.967187 C50.4458269,126.063543 46.4187733,116.101323 46.4187733,116.101323 C44.03963,108.703159 36.2831164,100.353841 29.0145208,97.7081207 C29.0145208,97.7081207 20.6737468,93.48 10.583871,93.48 L10.583871,51.2420768 C21.4997406,51.2420768 29.824312,48.0207101 29.824312,48.0207101 L29.824312,48.0207101 Z" transform="translate(69.554839, 72.483594) rotate(-10.000000) translate(-69.554839, -72.483594) "></path>
  </g>
</svg>