<?xml version="1.0" encoding="UTF-8" standalone="no"?>
<svg width="256px" height="256px" viewBox="0 0 256 256" version="1.1" xmlns="http://www.w3.org/2000/svg" xmlns:xlink="http://www.w3.org/1999/xlink">
  <g fill="#ffffff" fill-rule="evenodd">
    <g transform="translate(38.000000, 38.000000)">
      <path d="M13.3452452,157.670922 C13.3452452,157.670922 21.6563521,157.980613 25.5278159,156.896783 C29.6127982,155.753178 31.9629442,154.026716 31.9629442,154.026716 C34.8633444,152.34882 38.7312019,148.727363 40.6547695,145.976807 C40.6547695,145.976807 42.67555,142.606706 46.1362694,139.145986 C49.3360258,135.94623 57.1960109,131.007189 57.1960109,131.007189 L48.6024945,122.413673 L13.3452452,157.670922 L13.3452452,157.670922 Z M63.6531991,103.06621 L52.3564439,114.362965 C51.182968,115.536441 51.1795305,117.435584 52.3530229,118.609077 L55.6026256,121.858679 L51.8250631,125.636242 L53.9734422,127.784621 L57.7510046,124.007058 L57.7510046,124.007058 L61.0006073,127.256661 C62.1721938,128.428248 64.068664,128.431295 65.2467185,127.25324 L76.5434737,115.956485 L63.6531991,103.06621 Z M102.851138,63.868271 L149.556046,17.1633637 C153.119431,13.5999785 158.889012,13.6015701 162.448563,17.1611211 C166.008897,20.7214548 166.00711,26.4928487 162.44632,30.0536383 L115.741413,76.7585455 L102.851138,63.868271 Z"></path>
      <g transform="translate(89.918183, 90.064690) scale(-1, 1) rotate(-45.000000) translate(-89.918183, -90.064690) translate(-5.081817, 58.064690)">
        <path d="M42.0654873,11.1024678 L42.0307177,11.0675766 L25.4175649,27.6228382 L0,27.6228382 L6.5379438,35.9096897 L25.5119449,35.9096897 L25.5119449,35.9096897 L42.0414332,52.4969791 L42.0654873,52.4730087 L42.0654873,52.4833927 L158.985716,52.4833927 L158.985716,11.0491353 L42.0654873,11.0491353 L42.0654873,11.1024678 L42.0654873,11.1024678 L42.0654873,11.1024678 Z M61.0255244,17.9548449 L61.0255244,38.6719735 L65.7655336,38.6719735 L65.7655336,17.9548449 L61.0255244,17.9548449 L61.0255244,17.9548449 Z M86.3055737,17.9548449 L86.3055737,38.6719735 L91.045583,38.6719735 L91.045583,17.9548449 L86.3055737,17.9548449 L86.3055737,17.9548449 Z M136.865672,17.9548449 L136.865672,38.6719735 L141.605682,38.6719735 L141.605682,17.9548449 L136.865672,17.9548449 L136.865672,17.9548449 Z M111.585623,17.9548449 L111.585623,38.6719735 L116.325632,38.6719735 L116.325632,17.9548449 L111.585623,17.9548449 L111.585623,17.9548449 Z M98.9455984,17.9548449 L98.9455984,31.766264 L103.685608,31.766264 L103.685608,17.9548449 L98.9455984,17.9548449 L98.9455984,17.9548449 Z M124.225648,17.9548449 L124.225648,31.766264 L128.965657,31.766264 L128.965657,17.9548449 L124.225648,17.9548449 L124.225648,17.9548449 Z M73.665549,17.9548449 L73.665549,31.766264 L78.4055583,31.766264 L78.4055583,17.9548449 L73.665549,17.9548449 L73.665549,17.9548449 Z M158.985716,-1.63424829e-13 L158.985716,63.532528 L166.885731,63.532528 L166.885731,-1.63424829e-13 L158.985716,-1.63424829e-13 L158.985716,-1.63424829e-13 Z"></path>
        <path d="M181.89576,50.2182618 L181.89576,56.6268184 L189.795776,56.6268184 L189.795776,6.90570956 L181.89576,6.90570956 L181.89576,13.3142662 L181.89576,13.3142662 L174.200049,13.3142662 L174.200049,21.2142816 L181.89576,21.2142816 L181.89576,42.3182463 L174.200049,42.3182463 L174.200049,50.2182618 L181.89576,50.2182618 L181.89576,50.2182618 Z"></path>
      </g>
    </g>
  </g>
</svg>