<?xml version="1.0" encoding="UTF-8"?>
<svg width="375px" height="344px" viewBox="0 0 375 344" version="1.1" xmlns="http://www.w3.org/2000/svg" xmlns:xlink="http://www.w3.org/1999/xlink">
    <!-- Generator: Sketch 39 (31667) - http://www.bohemiancoding.com/sketch -->
    <title>Group 3</title>
    <desc>Created with Sketch.</desc>
    <defs></defs>
    <g id="Page-1" stroke="none" stroke-width="1" fill="none" fill-rule="evenodd">
        <g id="Group-3" transform="translate(-39.000000, -50.000000)" fill="#FFFFFF">
            <g id="Group-2" transform="translate(9.000000, 45.000000)">
                <path d="M11.7800238,55.746565 C11.8652222,54.6475485 12.8231136,53.9020556 13.9053452,54.0791383 L169.979664,79.6171627 C178.160376,80.9557508 185.542187,88.7158124 186.467898,96.9541694 L191.863221,144.969823 L4.86322138,144.969823 L11.7800238,55.746565 Z" id="Rectangle-6-Copy" transform="translate(98.363221, 99.363221) scale(-1, 1) rotate(45.000000) translate(-98.363221, -99.363221) "></path>
                <path d="M249.780024,54.746565 C249.865222,53.6475485 250.823114,52.9020556 251.905345,53.0791383 L407.979664,78.6171627 C416.160376,79.9557508 423.542187,87.7158124 424.467898,95.9541694 L429.863221,143.969823 L242.863221,143.969823 L249.780024,54.746565 Z" id="Rectangle-6-Copy-2" transform="translate(336.363221, 98.363221) rotate(45.000000) translate(-336.363221, -98.363221) "></path>
                <path d="M216.752309,83.3761543 L350.128463,216.752309 L220.285443,346.595329 C218.334147,348.546625 215.173276,348.549431 213.219175,346.595329 L83.3761543,216.752309 L216.752309,83.3761543 Z M264.000879,230.009668 C272.561293,230.009668 279.500879,223.070082 279.500879,214.509668 C279.500879,205.949254 272.561293,199.009668 264.000879,199.009668 C255.440465,199.009668 248.500879,205.949254 248.500879,214.509668 C248.500879,223.070082 255.440465,230.009668 264.000879,230.009668 Z M171.000879,230.009668 C179.561293,230.009668 186.500879,223.070082 186.500879,214.509668 C186.500879,205.949254 179.561293,199.009668 171.000879,199.009668 C162.440465,199.009668 155.500879,205.949254 155.500879,214.509668 C155.500879,223.070082 162.440465,230.009668 171.000879,230.009668 Z" id="Combined-Shape"></path>
            </g>
        </g>
    </g>
</svg>