<?xml version="1.0" encoding="UTF-8" standalone="no"?>
<svg width="256px" height="256px" viewBox="0 0 256 256" version="1.1" xmlns="http://www.w3.org/2000/svg" xmlns:xlink="http://www.w3.org/1999/xlink">
    <!-- Generator: Sketch 3.6.1 (26313) - http://www.bohemiancoding.com/sketch -->
    <title>Memberdatabase</title>
    <desc>Created with Sketch.</desc>
    <defs></defs>
    <g id="Page-1" stroke="none" stroke-width="1" fill="none" fill-rule="evenodd">
        <g id="Memberdatabase" fill="#FFFFFF">
            <g id="Group-2" transform="translate(45.000000, 42.000000)">
                <g id="logo-small">
                    <g id="Shape">
                        <g id="Page-1">
                            <g id="logo-small">
                                <g id="Page-1">
                                    <g id="Group" transform="translate(45.570899, 86.000000) scale(1, -1) translate(-45.570899, -86.000000) translate(0.070899, -0.000000)">
                                        <g id="Shape-Clipped" transform="translate(0.000000, 0.000000)">
                                            <path d="M90.1554569,67.590486 L90.1478353,62.8235781 L77.0670051,62.7346432 C69.7289784,62.6634953 63.8266525,62.5567735 63.1176644,62.4498738 C62.4441258,62.343152 61.238846,62.1830693 60.4589591,62.0941344 C56.896294,61.667425 53.7590217,60.8312596 51.596608,59.7640414 C49.8950366,58.9102668 49.2037732,58.3410838 47.9630441,56.989274 C47.6617241,57.8074747 47.5553759,59.4438759 47.7680724,60.2087156 C48.2466393,62.0053775 49.7886884,63.4994829 52.3587702,64.6912099 L53.7060248,65.3137539 L52.7311662,66.2386763 C46.9704608,71.6459152 39.7742317,74.0649431 33.4287883,72.7487073 C29.5470785,71.9482937 27.0478955,70.3474664 25.0627289,67.4304033 C23.1130116,64.549092 21.606412,60.1199586 20.8442498,54.9085543 C20.6315533,53.5389576 20.4188569,51.7778697 20.3656828,51.0132079 C20.2593346,49.6082151 20.117537,49.3590196 19.7807676,49.9639545 C19.4262736,50.6574685 11.0424895,60.5649886 9.7663109,61.8100765 C9.28774394,62.2903247 7.3557514,64.7805005 6.15047165,66.5058366 C1.94971724,72.4996898 -0.372218746,79.5077559 0.283595235,84.2568769 C0.584915172,86.5158221 0.921684513,87.6364012 1.86109373,89.557394 C3.36769341,92.6167528 5.88460112,95.0179938 9.41181685,96.7611169 C12.4781903,98.2730093 15.0128227,98.8599793 19.2490266,99.020062 C24.8677572,99.2335057 30.9296053,97.9884178 36.3356395,95.498242 C47.3781289,90.4289555 58.4560678,79.5611169 63.5253326,68.8 C64.216596,67.3236815 64.2874948,67.2525336 64.748337,67.3236815 C65.0142076,67.3592554 66.0954144,67.4481903 67.1588965,67.5193382 C68.204654,67.5728769 69.0554397,67.6794209 69.0554397,67.7327818 C69.0554397,67.8039297 68.9136421,68.106486 68.736395,68.3908997 C68.559148,68.6932782 68.1514799,69.404757 67.8147105,69.991727 C66.7866778,71.8949328 64.5533653,75.2388831 61.2565707,79.8634953 C59.8385945,81.837849 57.729355,85.0572906 57.0912657,86.1778697 C56.8253952,86.6759049 56.2582047,87.5830403 55.8505366,88.2233713 C54.6452568,90.126577 53.3159041,93.0436401 52.3764949,95.8184074 C50.8519933,100.336298 50.4445024,102.61303 50.4445024,106.935264 C50.4445024,112.36029 51.4725351,116.344571 54.1135157,121.004757 C55.868084,124.135264 57.3571362,125.8606 64.2697701,132.779731 C70.7924605,139.307549 72.3522343,141.068459 74.4082997,144.252327 C77.5632967,149.10817 79.5305614,153.857291 80.8246419,159.691417 C81.6754276,163.533402 81.8526746,164.991934 81.8702221,168.744984 C81.888124,170.523681 81.9233962,171.964426 81.9411209,171.928852 C81.9588456,171.911065 82.2247161,171.217373 82.5435835,170.381386 C84.7059972,164.476112 85.5567829,158.819855 85.0783932,153.181386 C84.7416238,149.250465 83.9262875,145.070527 82.8980776,142.206825 C82.7917294,141.922234 82.45496,140.961737 82.1538173,140.072389 C81.1256074,137.137539 78.466902,132.032678 76.6591597,129.489142 C74.957411,127.105688 74.1954261,125.913961 73.6459603,124.828956 C73.3446403,124.206412 72.8836208,123.352637 72.6177503,122.907963 C71.164502,120.417787 68.7183158,113.729886 67.814356,109.745605 C66.7508739,105.103206 66.4850034,102.684178 66.4850034,97.1168563 C66.4850034,93.132575 66.5559022,91.5673216 66.804048,89.8241986 C67.7434572,83.3497415 69.2677816,78.4049638 72.0682845,72.6775595 C73.0608679,70.6320579 73.9825524,68.6577042 74.1066253,68.3197518 L74.3193217,67.6794209 L79.3176877,67.62606 L81.1787815,67.6127198 L89.8009628,67.590486 L90.1554569,67.590486 L90.1554569,67.590486 Z M90.1289916,60.6535677 L84.3336012,60.6535677 C66.5734496,60.6535677 65.1730209,60.5824199 60.3166298,59.6752844 C57.2148069,59.0883144 55.4068873,58.5191313 53.279923,57.4519131 C49.7172579,55.6376422 47.8916135,52.7027921 48.4410793,49.6434333 L48.5828769,48.8609845 L49.0614439,49.5724633 C50.0894766,51.1553257 52.5884824,52.685183 55.7259319,53.6990403 C59.1827806,54.8194416 62.3909517,55.3174767 68.0628563,55.6020683 L70.5264127,55.726577 L70.4200645,54.6773237 C70.2959916,53.5921406 69.675627,51.5646039 69.1438859,50.4973857 C68.5766955,49.4301675 67.1232699,47.6158966 65.9179901,46.5131044 C64.1277952,44.8767032 62.1958027,43.7383371 59.3598503,42.617758 C56.6479709,41.5327528 55.0172983,41.1948004 48.4059844,40.3765998 C42.3618609,39.6117601 39.4550098,38.9358552 36.2822881,37.5306846 C28.8910873,34.2400951 26.8527465,29.597696 29.7241483,22.6607777 C30.2558894,21.362151 32.418303,17.8936918 32.9677688,17.4490176 C33.2336393,17.217787 33.3399875,17.2711479 33.9249027,17.8936918 C35.5555753,19.6369928 38.24973,21.0243764 42.7518044,22.4293692 C45.2332627,23.1943868 51.5078073,23.4432265 54.5210066,22.8740434 C56.1339545,22.5718428 56.5593474,22.4649431 59.1294292,21.6645295 C63.3479083,20.3305067 67.4777639,17.3600827 70.3846151,13.5536711 C71.2885749,12.3619442 72.7774499,9.62257291 73.3800898,8.05749741 C74.0536284,6.24322647 74.8687875,3.14829369 75.1171106,1.49428335 C75.2413607,0.67590486 75.3831583,0 75.4540572,0 C75.596032,0 75.8440006,1.36959669 76.1630452,3.75305067 C76.4822671,6.08332161 76.2695707,10.5120993 75.7199277,12.8423702 C75.223636,15.0123806 73.8767359,18.0361655 72.7421777,19.5658449 C69.1265157,24.4039007 63.5253326,27.3921117 55.4960425,28.7617084 C52.9614101,29.2063826 46.2260233,29.2063826 43.921812,28.7617084 C41.8302971,28.3526081 38.4980531,27.2318511 37.0446275,26.4138283 C36.4065383,26.0758759 35.8216231,25.7912844 35.7329996,25.7912844 C35.4671291,25.7912844 35.1658091,27.7122771 35.289882,28.5126908 C35.8393478,31.7499193 39.4906364,33.9910776 46.1551245,35.1472306 C50.6217494,35.9122482 55.0706497,36.8192058 56.7367717,37.281667 C60.6539308,38.3844592 65.3864263,40.6967653 67.8501599,42.7066929 C71.235578,45.4636732 73.3979917,49.6082151 73.7879352,54.0725667 L73.9297328,55.5844592 L90.1289941,55.5844604 L90.1289916,60.6535677 L90.1289916,60.6535677 Z M47.5731006,81.0907963 C48.6897569,80.2370217 54.2375887,74.705274 55.4960425,73.2111686 C57.5166586,70.7921406 59.9449428,67.1991727 59.7676957,66.8967942 C59.7145216,66.8258242 59.0587076,66.6479545 58.3144474,66.5232678 L56.9496453,66.2920372 L56.5772493,66.8078594 C56.3822776,67.0926287 55.4430456,68.0885212 54.5211839,69.0312306 C52.0928997,71.5036194 49.9482107,73.0332989 46.3146468,74.8831437 C43.6380395,76.2349535 42.3620382,76.6974147 38.746199,77.6045502 L35.8216231,78.3339938 L32.2766827,78.3339938 C28.8380904,78.3517808 28.6962928,78.3339938 27.3137661,77.8357808 C25.0627289,77.0353671 24.0346961,76.430788 22.7585176,75.1143744 C20.3125087,72.6064116 19.1072289,69.1201655 18.5223138,62.8057911 C18.3982409,61.5253071 18.2387185,60.475698 18.150095,60.475698 C18.0614715,60.475698 17.795601,60.8136505 17.5474552,61.2405377 C15.8458837,64.1576008 13.2758019,68.9956567 12.6022632,70.6142709 C12.3541174,71.201241 11.964174,72.0905895 11.7337528,72.6064116 C11.5033317,73.1220558 11.0779389,74.3851086 10.7943436,75.4167528 C10.3689508,77.0353671 10.298052,77.6045502 10.298052,79.6856256 C10.298052,81.7133402 10.3512261,82.2647363 10.7057201,83.2608066 C11.7160281,86.2136215 14.7646769,88.4901758 18.805909,89.3083764 C21.5177884,89.8599504 26.5161545,89.8955243 29.6534267,89.3795243 C36.0165948,88.34788 41.422629,85.8399173 47.5731006,81.0907963 L47.5731006,81.0907963 L47.5731006,81.0907963 Z" id="Shape"></path>
                                        </g>
                                    </g>
                                </g>
                            </g>
                        </g>
                    </g>
                </g>
                <g id="logo-small-copy" transform="translate(120.000000, 86.000000) scale(-1, 1) translate(-120.000000, -86.000000) translate(74.000000, 0.000000)">
                    <g id="Shape">
                        <g id="Page-1">
                            <g id="logo-small">
                                <g id="Page-1">
                                    <g id="Group" transform="translate(45.570899, 86.000000) scale(1, -1) translate(-45.570899, -86.000000) translate(0.070899, -0.000000)">
                                        <g id="Shape-Clipped" transform="translate(0.000000, 0.000000)">
                                            <path d="M90.1554569,67.590486 L90.1478353,62.8235781 L77.0670051,62.7346432 C69.7289784,62.6634953 63.8266525,62.5567735 63.1176644,62.4498738 C62.4441258,62.343152 61.238846,62.1830693 60.4589591,62.0941344 C56.896294,61.667425 53.7590217,60.8312596 51.596608,59.7640414 C49.8950366,58.9102668 49.2037732,58.3410838 47.9630441,56.989274 C47.6617241,57.8074747 47.5553759,59.4438759 47.7680724,60.2087156 C48.2466393,62.0053775 49.7886884,63.4994829 52.3587702,64.6912099 L53.7060248,65.3137539 L52.7311662,66.2386763 C46.9704608,71.6459152 39.7742317,74.0649431 33.4287883,72.7487073 C29.5470785,71.9482937 27.0478955,70.3474664 25.0627289,67.4304033 C23.1130116,64.549092 21.606412,60.1199586 20.8442498,54.9085543 C20.6315533,53.5389576 20.4188569,51.7778697 20.3656828,51.0132079 C20.2593346,49.6082151 20.117537,49.3590196 19.7807676,49.9639545 C19.4262736,50.6574685 11.0424895,60.5649886 9.7663109,61.8100765 C9.28774394,62.2903247 7.3557514,64.7805005 6.15047165,66.5058366 C1.94971724,72.4996898 -0.372218746,79.5077559 0.283595235,84.2568769 C0.584915172,86.5158221 0.921684513,87.6364012 1.86109373,89.557394 C3.36769341,92.6167528 5.88460112,95.0179938 9.41181685,96.7611169 C12.4781903,98.2730093 15.0128227,98.8599793 19.2490266,99.020062 C24.8677572,99.2335057 30.9296053,97.9884178 36.3356395,95.498242 C47.3781289,90.4289555 58.4560678,79.5611169 63.5253326,68.8 C64.216596,67.3236815 64.2874948,67.2525336 64.748337,67.3236815 C65.0142076,67.3592554 66.0954144,67.4481903 67.1588965,67.5193382 C68.204654,67.5728769 69.0554397,67.6794209 69.0554397,67.7327818 C69.0554397,67.8039297 68.9136421,68.106486 68.736395,68.3908997 C68.559148,68.6932782 68.1514799,69.404757 67.8147105,69.991727 C66.7866778,71.8949328 64.5533653,75.2388831 61.2565707,79.8634953 C59.8385945,81.837849 57.729355,85.0572906 57.0912657,86.1778697 C56.8253952,86.6759049 56.2582047,87.5830403 55.8505366,88.2233713 C54.6452568,90.126577 53.3159041,93.0436401 52.3764949,95.8184074 C50.8519933,100.336298 50.4445024,102.61303 50.4445024,106.935264 C50.4445024,112.36029 51.4725351,116.344571 54.1135157,121.004757 C55.868084,124.135264 57.3571362,125.8606 64.2697701,132.779731 C70.7924605,139.307549 72.3522343,141.068459 74.4082997,144.252327 C77.5632967,149.10817 79.5305614,153.857291 80.8246419,159.691417 C81.6754276,163.533402 81.8526746,164.991934 81.8702221,168.744984 C81.888124,170.523681 81.9233962,171.964426 81.9411209,171.928852 C81.9588456,171.911065 82.2247161,171.217373 82.5435835,170.381386 C84.7059972,164.476112 85.5567829,158.819855 85.0783932,153.181386 C84.7416238,149.250465 83.9262875,145.070527 82.8980776,142.206825 C82.7917294,141.922234 82.45496,140.961737 82.1538173,140.072389 C81.1256074,137.137539 78.466902,132.032678 76.6591597,129.489142 C74.957411,127.105688 74.1954261,125.913961 73.6459603,124.828956 C73.3446403,124.206412 72.8836208,123.352637 72.6177503,122.907963 C71.164502,120.417787 68.7183158,113.729886 67.814356,109.745605 C66.7508739,105.103206 66.4850034,102.684178 66.4850034,97.1168563 C66.4850034,93.132575 66.5559022,91.5673216 66.804048,89.8241986 C67.7434572,83.3497415 69.2677816,78.4049638 72.0682845,72.6775595 C73.0608679,70.6320579 73.9825524,68.6577042 74.1066253,68.3197518 L74.3193217,67.6794209 L79.3176877,67.62606 L81.1787815,67.6127198 L89.8009628,67.590486 L90.1554569,67.590486 L90.1554569,67.590486 Z M90.1289916,60.6535677 L84.3336012,60.6535677 C66.5734496,60.6535677 65.1730209,60.5824199 60.3166298,59.6752844 C57.2148069,59.0883144 55.4068873,58.5191313 53.279923,57.4519131 C49.7172579,55.6376422 47.8916135,52.7027921 48.4410793,49.6434333 L48.5828769,48.8609845 L49.0614439,49.5724633 C50.0894766,51.1553257 52.5884824,52.685183 55.7259319,53.6990403 C59.1827806,54.8194416 62.3909517,55.3174767 68.0628563,55.6020683 L70.5264127,55.726577 L70.4200645,54.6773237 C70.2959916,53.5921406 69.675627,51.5646039 69.1438859,50.4973857 C68.5766955,49.4301675 67.1232699,47.6158966 65.9179901,46.5131044 C64.1277952,44.8767032 62.1958027,43.7383371 59.3598503,42.617758 C56.6479709,41.5327528 55.0172983,41.1948004 48.4059844,40.3765998 C42.3618609,39.6117601 39.4550098,38.9358552 36.2822881,37.5306846 C28.8910873,34.2400951 26.8527465,29.597696 29.7241483,22.6607777 C30.2558894,21.362151 32.418303,17.8936918 32.9677688,17.4490176 C33.2336393,17.217787 33.3399875,17.2711479 33.9249027,17.8936918 C35.5555753,19.6369928 38.24973,21.0243764 42.7518044,22.4293692 C45.2332627,23.1943868 51.5078073,23.4432265 54.5210066,22.8740434 C56.1339545,22.5718428 56.5593474,22.4649431 59.1294292,21.6645295 C63.3479083,20.3305067 67.4777639,17.3600827 70.3846151,13.5536711 C71.2885749,12.3619442 72.7774499,9.62257291 73.3800898,8.05749741 C74.0536284,6.24322647 74.8687875,3.14829369 75.1171106,1.49428335 C75.2413607,0.67590486 75.3831583,0 75.4540572,0 C75.596032,0 75.8440006,1.36959669 76.1630452,3.75305067 C76.4822671,6.08332161 76.2695707,10.5120993 75.7199277,12.8423702 C75.223636,15.0123806 73.8767359,18.0361655 72.7421777,19.5658449 C69.1265157,24.4039007 63.5253326,27.3921117 55.4960425,28.7617084 C52.9614101,29.2063826 46.2260233,29.2063826 43.921812,28.7617084 C41.8302971,28.3526081 38.4980531,27.2318511 37.0446275,26.4138283 C36.4065383,26.0758759 35.8216231,25.7912844 35.7329996,25.7912844 C35.4671291,25.7912844 35.1658091,27.7122771 35.289882,28.5126908 C35.8393478,31.7499193 39.4906364,33.9910776 46.1551245,35.1472306 C50.6217494,35.9122482 55.0706497,36.8192058 56.7367717,37.281667 C60.6539308,38.3844592 65.3864263,40.6967653 67.8501599,42.7066929 C71.235578,45.4636732 73.3979917,49.6082151 73.7879352,54.0725667 L73.9297328,55.5844592 L90.1289941,55.5844604 L90.1289916,60.6535677 L90.1289916,60.6535677 Z M47.5731006,81.0907963 C48.6897569,80.2370217 54.2375887,74.705274 55.4960425,73.2111686 C57.5166586,70.7921406 59.9449428,67.1991727 59.7676957,66.8967942 C59.7145216,66.8258242 59.0587076,66.6479545 58.3144474,66.5232678 L56.9496453,66.2920372 L56.5772493,66.8078594 C56.3822776,67.0926287 55.4430456,68.0885212 54.5211839,69.0312306 C52.0928997,71.5036194 49.9482107,73.0332989 46.3146468,74.8831437 C43.6380395,76.2349535 42.3620382,76.6974147 38.746199,77.6045502 L35.8216231,78.3339938 L32.2766827,78.3339938 C28.8380904,78.3517808 28.6962928,78.3339938 27.3137661,77.8357808 C25.0627289,77.0353671 24.0346961,76.430788 22.7585176,75.1143744 C20.3125087,72.6064116 19.1072289,69.1201655 18.5223138,62.8057911 C18.3982409,61.5253071 18.2387185,60.475698 18.150095,60.475698 C18.0614715,60.475698 17.795601,60.8136505 17.5474552,61.2405377 C15.8458837,64.1576008 13.2758019,68.9956567 12.6022632,70.6142709 C12.3541174,71.201241 11.964174,72.0905895 11.7337528,72.6064116 C11.5033317,73.1220558 11.0779389,74.3851086 10.7943436,75.4167528 C10.3689508,77.0353671 10.298052,77.6045502 10.298052,79.6856256 C10.298052,81.7133402 10.3512261,82.2647363 10.7057201,83.2608066 C11.7160281,86.2136215 14.7646769,88.4901758 18.805909,89.3083764 C21.5177884,89.8599504 26.5161545,89.8955243 29.6534267,89.3795243 C36.0165948,88.34788 41.422629,85.8399173 47.5731006,81.0907963 L47.5731006,81.0907963 L47.5731006,81.0907963 Z" id="Shape"></path>
                                        </g>
                                    </g>
                                </g>
                            </g>
                        </g>
                    </g>
                </g>
            </g>
        </g>
    </g>
</svg>