<?xml version="1.0" encoding="UTF-8" standalone="no"?>
<svg width="256px" height="256px" viewBox="0 0 256 256" version="1.1" xmlns="http://www.w3.org/2000/svg" xmlns:xlink="http://www.w3.org/1999/xlink">
    <!-- Generator: Sketch 3.6.1 (26313) - http://www.bohemiancoding.com/sketch -->
    <title>Monomo</title>
    <desc>Created with Sketch.</desc>
    <defs></defs>
    <g id="Page-1" stroke="none" stroke-width="1" fill="none" fill-rule="evenodd">
        <g id="Monomo" fill="#FFFFFF">
            <path d="M211.200081,83.6722214 C222.631535,93.4228157 230.011908,107.398465 230.011908,127.138512 C230.011908,179.442438 184.722628,206.740234 136.5,214 C88.2773724,221.259766 43.5162411,188.995632 43.5162411,147.298134 C43.5162411,143.470372 43.9484273,139.634999 44.7657081,135.825669 C33.7630246,131.379171 26,120.596161 26,108 C26,91.4314575 39.4314575,78 56,78 C64.3692615,78 71.9380772,81.427116 77.3796381,86.9545391 C94.9438981,72.5157418 116.792874,63 136.5,63 C142.475105,63 148.65795,63.24301 154.866306,63.813286 C158.0864,50.7154188 169.908621,41 184,41 C200.568542,41 214,54.4314575 214,71 C214,75.5284854 212.996631,79.8226216 211.200081,83.6722214 Z M108.770004,181.85483 C121.952227,180.469323 131.515354,168.659844 130.129847,155.477622 C128.744339,142.295399 119.395784,127.446077 106.213561,128.831584 C93.0313388,130.217092 81.0072882,147.312765 82.3927957,160.494988 C83.7783031,173.67721 95.5877816,183.240338 108.770004,181.85483 Z M183.042861,150.973275 C194.283597,143.949283 197.701944,129.142795 190.677952,117.902058 C183.653961,106.661321 163.653732,100.592491 152.412995,107.616483 C141.172258,114.640475 142.947652,132.097446 149.971644,143.338183 C156.995636,154.578919 171.802124,157.997266 183.042861,150.973275 Z M111,173 C115.418278,173 119,169.418278 119,165 C119,160.581722 115.418278,157 111,157 C106.581722,157 103,160.581722 103,165 C103,169.418278 106.581722,173 111,173 Z M171,146 C175.418278,146 179,142.418278 179,138 C179,133.581722 175.418278,130 171,130 C166.581722,130 163,133.581722 163,138 C163,142.418278 166.581722,146 171,146 Z M152.57053,173.354027 C148.120099,174.973852 139.475654,173.942407 140.067333,168.801217 C140.347372,166.367906 143.92818,164.169308 147.539476,162.67906 C151.558262,161.020656 155.731006,160.297589 157.86906,162.321918 C161.928377,166.165317 157.020962,171.734203 152.57053,173.354027 Z M164.920686,201.176061 C155.594268,204.944178 135.454269,195.069532 137.989025,188.221484 C139.220038,184.895705 149.694156,186.235723 157.545764,182.92249 C165.861256,179.413507 171.638655,171.390398 175.294696,173.149014 C182.402823,176.568142 174.247103,197.407943 164.920686,201.176061 Z" id="Combined-Shape"></path>
        </g>
    </g>
</svg>