<?xml version="1.0" encoding="UTF-8" standalone="no"?>
<svg width="1024px" height="1024px" viewBox="0 0 1024 1024" version="1.1" xmlns="http://www.w3.org/2000/svg" xmlns:xlink="http://www.w3.org/1999/xlink">
    <!-- Generator: Sketch 3.6.1 (26313) - http://www.bohemiancoding.com/sketch -->
    <title>icon</title>
    <desc>Created with Sketch.</desc>
    <defs></defs>
    <g id="Page-1" stroke="none" stroke-width="1" fill="none" fill-rule="evenodd">
        <g id="icon">
            <rect id="Rectangle-1-Copy-6" fill="#282D31" x="0" y="0" width="1024" height="1024"></rect>
            <path d="M429.244795,712.946408 L444.627265,707.137158 L450.202877,705.726167 L547.453856,701.59084 L557.714056,702.70645 L577.577785,711.140662 L600.815198,722.621443 L632.596676,739.819424 L646.340413,743.547077 L662.251902,742.023792 L672.834335,735.79639 L679.962526,726.00001 L687.334833,713.618441 L691.877834,702.13766 L695.305224,689.436298 L677.916833,690.031942 L677.291896,686.170025 L679.196001,680.784823 L686.702572,668.242137 L659.681359,680.242885 L652.526315,681.548907 L646.486883,681.11438 L646.677293,674.45001 L652.062495,662.127028 L633.88805,671.676851 L629.345049,672.765609 L624.831342,671.706145 L617.893562,668.657134 L617.268625,663.735753 L619.880667,655.548099 L622.95653,647.70953 L612.154392,655.435805 L606.522633,660.19607 L601.762369,660.84786 L594.634178,659.978806 L585.95585,655.028132 L585.521323,650.29472 L590.745408,637.07095 L581.87667,642.021625 L575.78109,645.287898 L571.645763,645.287898 L567.129615,642.050919 L560.872919,634.895875 L558.346317,628.258358 L557.040296,620.695641 L557.040296,609.21486 L558.971254,601.869406 L564.981393,592.431877 L571.919173,586.639001 L578.422427,583.155464 L582.34049,583.155464 L582.52846,589.168044 L578.9131,598.063635 L586.153584,595.043919 L591.377669,590.530212 L598.315449,587.263938 L605.253229,587.888876 L610.091611,590.227508 L615.069138,596.049677 L613.98038,602.059816 L610.716548,612.178429 L617.463917,607.606134 L621.706656,604.398449 L625.756542,603.773511 L632.174355,603.773511 L637.12503,605.487207 L640.362009,607.825839 L641.641178,613.372157 L641.016241,623.329654 L649.042778,618.786653 L654.020306,614.895442 L658.346044,614.895442 L665.06656,617.507484 L670.642173,620.339231 L671.757783,624.635675 L669.799972,631.138928 L666.750962,637.395624 L677.389542,631.517308 L682.909007,627.438128 L687.207892,627.438128 L693.928409,630.23814 L701.735242,634.563877 L707.501265,639.734257 L704.642665,644.902195 L698.415263,655.975302 L715.337393,651.024627 L721.755205,651.024627 L726.05409,651.024627 L727.330817,657.471734 L738.159808,657.498587 L744.199241,655.350365 L750.426643,648.307615 L758.018655,642.458593 L763.782236,638.784645 L775.890396,633.56056 L784.239167,628.639179 L778.907671,626.271253 L776.976712,623.034273 L779.371491,618.408273 L784.07805,614.326651 L787.939967,611.800049 L792.370675,612.424987 L792.370675,616.477314 L790.874243,621.889369 L796.640266,617.783335 L798.515077,613.540597 L799.140015,604.974563 L799.140015,598.55675 L788.74555,591.589676 L780.994864,588.977634 L770.383136,582.994347 L752.975216,570.405279 L741.579875,559.549436 L735.730853,552.638508 L724.494188,546.135255 L707.030121,537.078547 L698.842466,535.335558 L686.02637,521.328175 L671.0352,506.524974 L660.423472,488.645909 L648.535017,469.468147 L634.03452,456.217524 L617.954591,445.058976 L605.167789,436.788322 L597.358514,429.442868 L588.545922,419.814929 L572.304877,412.933295 L557.311265,405.314431 L545.583927,396.416399 L538.458177,389.971733 L529.833555,380.800291 L514.898531,377.970985 L506.710876,374.079774 L497.681021,363.309371 L476.213449,320.816078 L466.636774,302.61478 L461.088015,292.574284 L452.465833,272.090501 L441.287756,242.266835 L432.25546,233.835064 L425.620384,230.624937 L420.235182,230 L413.163139,233.947358 L407.53138,244.529791 L402.988379,261.613037 L399.260726,284.357336 L394.905694,316.302371 L392.540209,337.767501 L383.85944,356.405767 L380.34905,363.807368 L370.799227,370.554737 L357.275195,380.321823 L344.705656,393.679857 L339.452277,394.360941 L322.557,391.775751 L301.145576,388.946445 L285.199911,384.403444 L275.48653,380.048413 L267.923813,375.778822 L274.427066,384.647561 L280.654469,387.23275 L287.536102,390.496583 L287.101575,395.012731 L280.136942,395.012731 L266.041678,396.291899 L256.330739,403.229679 L248.958432,414.24664 L243.106969,427.904937 L237.257946,460.333322 L233.122619,480.929399 L230.320166,492.627443 L225.013082,499.81178 L241.00757,493.06197 L258.395961,482.6138 L272.024964,476.300957 L277.439459,469.419324 L285.21944,468.35986 L295.85802,464.468649 L309.706728,457.938543 L307.775769,462.74763 L298.282093,468.408683 L279.209301,479.017969 L257.524466,491.179834 L240.004253,500.456247 L233.283736,503.749373 L227.464008,504.811278 L232.631946,516.726586 L234.589757,528.019398 L233.256883,544.533853 L230.45443,562.954855 L245.748305,549.921496 L262.616729,537.434956 L280.654469,527.858281 L297.361776,523.371427 L313.793232,521.657732 L328.567139,521.657732 L374.246147,521.818848 L395.467161,520.105153 L408.878901,515.779416 L424.194746,509.578866 L413.121639,519.072542 L403.78908,523.615543 L390.782573,526.227585 L353.10325,527.316343 L318.575466,528.622365 L294.495852,531.671375 L276.484965,538.362598 L256.814089,550.089936 L240.299633,564.673433 L228.789558,579.012814 L224,593.571899 L239.049759,581.598003 L256.162299,574.005992 L268.570721,572.048181 L284.867913,570.117222 L297.684009,569.462991 L317.220622,566.472569 L334.579719,562.117537 L349.324333,558.692588 L362.111135,557.386567 L366.60043,557.386567 L356.044849,562.090684 L341.270942,567.475886 L315.309193,573.107645 L307.121538,574.252549 L283.969565,576.893886 L268.163047,579.288665 L249.280665,585.411097 L240.543749,589.329161 L235.375811,590.417919 L244.027286,606.336731 L250.691656,618.064069 L253.057141,630.416345 L253.057141,638.603999 L264.728333,645.021812 L278.359777,648.913023 L292.074221,648.913023 L307.443771,643.688938 L316.749478,635.310873 L327.170795,626.251724 L343.41184,613.872595 L360.004413,606.961668 L375.215288,605.655647 L388.465911,606.934815 L375.405699,611.829343 L360.441381,613.787155 L347.434874,620.451525 L334.865335,630.21861 L320.555248,644.909518 L307.143509,653.560994 L299.30494,656.143742 L281.64558,657.044531 L268.885631,655.738509 L254.250869,648.610319 L261.408354,657.535204 L266.415175,671.220354 L268.809955,682.891545 L272.481461,695.868758 L268.59025,701.500517 L262.714375,704.056413 L256.484532,705.306287 L274.790799,708.10874 L280.234589,712.681035 L290.921993,719.682285 L302.18551,731.46577 L304.333732,736.360298 L314.025142,719.701815 L323.819081,708.628707 L336.361767,700.250642 L344.605568,695.463525 L353.579276,686.89505 L349.90777,697.069809 L337.772758,706.431662 L326.262683,715.461518 L316.930124,727.406119 L308.906027,737.798142 L306.972627,746.478912 L306.972627,760.137208 L308.93288,773.548948 L311.923302,783.47715 L315.680249,794.826109 L323.413848,781.272782 L330.644567,772.18678 L339.078779,761.167378 L353.171603,749.903861 L369.197826,737.77129 L367.29372,748.380576 L361.661961,760.950115 L358.859508,772.762894 L369.336972,758.20625 L384.982374,738.396227 L400.600923,720.356046 L413.739253,712.356361 L425.871824,708.00377 L431.069056,699.408442 L437.381899,689.233682 L446.355607,686.052849 L458.139092,682.134785 L473.945611,676.256469 L487.196234,671.930731 L498.840572,660.969918 L496.255383,670.302477 L488.446108,680.477237 L473.537937,685.891732 L459.418261,689.155565 L445.786816,693.671713 L439.503268,701.263724 L430.822498,710.7574 L429.244795,712.946408 Z M442.628235,673.871696 L447.772193,668.806701 L453.796143,663.330223 L459.24279,660.836768 L469.637744,658.323133 L480.033575,655.66298 L490.116189,650.567276 L498.242292,643.233429 L506.671961,635.204713 L515.873706,627.401479 L518.513681,626.227572 L517.731076,630.528388 L513.584675,637.236678 L504.998837,647.407028 L498.515151,653.890714 L489.302877,658.428416 L477.128638,662.721336 L465.647513,665.772792 L456.044815,669.440154 L450.499903,672.256478 L446.364031,674.358631 L442.628235,673.871696 Z M553.100065,586.904324 L555.368916,583.236962 L558.88976,580.216214 L563.573981,577.71223 L568.717939,576.069813 L573.626765,574.973992 L576.834391,575.198596 L576.061437,578.307957 L570.673573,581.573489 L563.339726,584.066944 L558.382646,586.931523 L553.100065,586.904324 Z M623.58975,589.538157 L630.366474,592.667698 L638.492577,596.882533 L648.819974,602.90736 L656.184529,606.182542 L651.969694,608.217139 L645.241225,607.523147 L637.594161,604.002304 L628.872331,598.995214 L624.579412,595.240116 L623.180901,592.746661 L623.58975,589.538157 Z M628.314331,677.85754 L651.735439,701.97264 L648.098785,703.458887 L643.717252,702.060376 L637.233566,695.645124 L632.637958,690.960903 L630.291021,687.460239 L627.729132,683.735848 L627.504528,680.262382 L628.314331,677.85754 Z M654.516669,691.627696 L659.435145,696.682163 L662.232167,700.563601 L665.820567,704.387133 L667.306814,709.071355 L669.096627,711.037517 L671.902422,709.864488 L672.127026,706.237484 L671.423384,702.522745 L666.592643,696.137323 L662.701554,692.694565 L659.347409,689.497467 L656.795171,688.32356 L655.115028,689.320241 L654.516669,691.627696 Z M721.088944,639.464293 L725.224816,643.219391 L728.823745,645.253988 L732.491107,646.897282 L735.912808,647.836057 L739.638076,646.897282 L742.924665,643.855477 L741.995541,641.52872 L739.032698,641.52872 L734.886298,641.52872 L730.905718,639.886303 L725.840723,637.069102 L723.013871,636.385639 L721.088944,639.464293 Z M725.8416,571.491752 L728.56931,574.37651 L732.294578,577.172654 L735.492553,579.040552 L739.403821,579.285336 L742.757966,578.112306 L745.486554,575.305633 L746.649933,572.734093 L745.711158,571.668979 L742.904485,571.511931 L739.247651,571.893583 L735.502204,572.127838 L730.896067,571.648799 L729.116783,570.318723 L725.8416,571.491752 Z M700.359574,549.152427 L703.947974,552.595186 L708.387412,555.949331 L712.669804,558.452437 L716.817081,560.956421 L720.796784,561.572327 L727.592809,561.572327 L732.971022,561.572327 L734.98544,560.867807 L729.059754,557.425926 L723.310418,554.775424 L719.02715,553.602394 L716.064307,553.602394 L711.625746,552.751356 L707.88995,551.353722 L704.760409,550.41407 L700.359574,549.152427 Z M673.018995,524.60488 L675.215279,526.993434 C675.215279,526.993434 676.198449,527.623765 676.690035,527.938931 L680.115741,527.807995 L680.844849,525.7964 L680.66843,522.846199 L678.288146,521.011024 L674.693601,520.649915 L672.92734,522.002005 L673.018995,524.60488 Z M634.769752,518.384029 L637.703414,520.080687 L640.768012,521.125421 L645.98341,521.916552 L651.306314,523.514663 L656.514133,525.034903 L660.684798,526.694348 L663.503373,528.660459 L666.076616,529.213837 L668.265319,529.090481 L665.692076,526.586842 L662.680542,524.505644 L658.165308,521.32596 L654.362643,519.482515 L648.540802,518.130426 L643.394318,517.400628 L638.755728,517.400628 L634.769752,518.384029 Z M586.822265,533.547139 L589.280422,534.284517 L595.402037,535.788906 L603.305764,536.334014 L607.967785,534.920591 L611.623664,532.079963 L610.095155,530.129702 L604.149959,529.207635 L599.740852,528.732129 L596.062232,528.732129 L590.97708,529.469507 L586.745082,531.620308 L586.822265,533.547139 Z M558.132749,516.859655 L565.352162,520.977256 L572.579844,523.849585 L579.078418,525.201674 L587.465231,525.930782 L596.429542,525.746782 L604.586872,525.562093 L610.663005,525.562093 L610.855274,523.788251 L607.68386,521.292192 L603.819862,520.247459 L596.576329,519.817436 L591.991492,520.002125 L587.144782,520.002125 L581.498672,519.264748 L575.614809,517.674905 L571.513747,515.708105 L567.035726,515.339416 L561.942994,514.233349 L559.746711,514.233349 L558.132749,516.859655 Z M571.230511,482.985751 L576.45349,489.852325 L581.493159,494.637701 L588.490669,498.939302 L598.729197,504.040304 L605.59646,506.912633 L612.155678,511.3369 L615.904591,512.996346 L618.477833,512.996346 L616.211946,508.894594 L612.847573,503.817712 L612.110195,500.753114 L609.852578,496.221341 L608.016714,493.717702 L604.706093,489.117014 L601.342409,485.745061 L598.031789,484.76166 L592.577948,483.241421 L586.326086,482.074021 L580.934268,482.074021 L575.72645,482.074021 L573.099454,481.421407 L571.230511,482.985751 Z M614.748906,473.178624 L619.403346,476.735266 L624.496078,481.136104 L629.40481,485.130349 L632.330202,488.010947 L636.194201,490.837793 L638.828776,490.653104 L640.049929,488.825509 L638.390484,484.78578 L634.412089,480.790845 L630.056735,477.103955 L624.833067,473.178624 L621.768469,471.94989 L619.07256,471.212512 L615.999692,471.396512 L614.748906,473.178624 Z M631.194502,464.605054 L633.407325,468.469052 L636.771009,472.692781 L640.934094,477.970202 L642.953958,481.264972 L644.982092,485.66581 L646.579515,490.266497 L649.783319,496.403963 L651.74185,500.205939 L654.491512,500.205939 L655.405309,497.718149 L655.405309,494.546735 L653.999467,488.401 L650.012802,481.104403 L645.534781,476.134338 L639.790124,469.467614 L634.398306,464.190882 L631.886397,462.248201 L631.194502,464.605054 Z M531.817314,485.00148 L534.681372,481.867279 L538.92164,479.225123 L545.419525,475.722233 L551.995283,473.31783 L557.240315,472.288946 L561.726605,472.104257 L564.852536,474.747102 L564.492117,477.750367 L560.136763,478.979101 L553.876631,480.208523 L546.464259,480.708149 L544.267975,481.683279 L540.957355,482.481991 L537.839693,484.494275 L536.257432,485.592072 L531.817314,485.00148 Z M507.899391,429.175765 L512.93837,434.899058 L517.838832,438.701034 L523.054231,440.544479 L530.297764,442.019235 L535.943185,442.756613 L543.186717,442.756613 L550.614939,442.387924 L558.526247,441.212944 L566.806932,441.212944 L574.69412,440.651296 L582.597848,440.651296 L589.886863,440.651296 L593.673678,442.372074 L597.290965,445.137586 L600.970275,443.125302 L597.168299,439.938038 L592.874278,437.488151 L588.166774,435.238114 L580.954942,434.193381 L571.629522,434.016961 L561.690081,433.840542 L553.955192,436.175343 L544.154267,436.360032 L534.329912,436.298698 L526.418604,435.568901 L519.436255,432.757906 L513.384242,430.484438 L507.899391,429.175765 Z M476.183178,394.93455 L481.889933,402.10848 L489.59381,408.483698 L501.937655,415.489478 L512.376722,420.959169 L523.860523,423.539992 L532.992983,425.313834 L543.170867,426.350987 L553.126159,426.227631 L559.202291,426.227631 L566.360371,428.255765 L571.444833,428.509368 L574.124892,426.251751 L569.515935,423.932801 L562.173167,421.97358 L555.261109,420.199738 L547.395285,419.900652 L534.652428,419.85448 L526.003743,419.194975 L515.042998,414.892684 L504.849954,409.608372 L492.828625,403.286217 L482.889183,397.964002 L476.183178,394.93455 Z M457.89207,337.454213 L450.026245,323.328257 L442.959132,313.388815 L437.927733,307.320263 L436.145621,303.77189 L436.51431,301.636939 L438.472841,302.128984 L442.50499,304.095096 L451.715323,315.042058 L456.016924,321.593695 L460.187589,329.021228 L463.252187,334.175293 L464.48161,338.56028 L465.034299,342.608279 L462.654015,343.768099 L459.450211,342.477343 L459.450211,339.5361 L457.89207,337.454213 Z M450.335668,369.386126 L449.61414,366.321528 L442.915716,360.72917 L434.197427,353.178282 L427.507273,345.450974 L422.59096,336.917375 L419.46434,328.644959 L418.788295,320.872168 L418.780715,296.760597 L418.780715,284.855043 L418.964714,275.091332 L419.879201,267.564563 L421.107935,260.451967 L421.107935,256.157946 L420.24789,254.330352 L418.050917,254.88373 L415.678214,257.756058 L412.851369,265.728699 L411.867968,272.956382 L411.315279,280.868378 L411.622635,294.625646 L411.069257,310.595737 L411.437946,323.000916 L413.097391,332.088583 L415.862903,340.675935 L422.930016,351.959196 L425.695528,356.52267 L431.378852,361.414863 L437.008423,364.65657 L442.830952,368.458546 L446.763864,370.301991 L450.335668,369.386126 Z M437.330735,442.616414 L447.64479,447.476404 L457.213687,450.940502 L469.477241,454.260532 L481.247081,455.992581 L490.616873,456.654105 L497.876371,458.434177 L503.31371,459.685461 L509.598188,461.561578 L505.905848,464.394368 L499.380178,464.971718 L490.600146,463.859106 L482.769774,462.993081 L474.024814,461.495209 L467.259032,461.10995 L458.412092,458.752529 L452.595968,456.105893 L444.200656,452.695753 L439.329875,448.317607 L436.737737,444.294505 L437.330735,442.616414 Z M433.844514,455.59707 L437.495306,459.831147 L442.306734,462.910525 L451.225437,465.900333 L457.131131,469.165866 L462.809122,470.89198 L470.579062,470.933528 L477.4533,470.115526 L483.413492,467.85415 L479.204235,465.624069 L473.201956,465.624069 L465.666733,464.420807 L457.595709,461.732624 L451.172558,459.669813 L444.869735,456.49439 L438.969976,454.190926 L435.655881,453.18677 L433.844514,455.59707 Z M358.931492,421.886593 L366.912357,422.140031 L371.983151,423.951058 L377.514927,424.969685 L380.521256,423.520944 L382.150733,420.012613 L379.661028,417.165495 L376.311502,415.001523 L371.436066,414.820786 L366.845749,415.907239 L363.704171,417.428275 L359.65241,419.705156 L358.931492,421.886593 Z M306.974272,447.111466 L320.775634,446.097813 L340.518094,445.35629 L355.266562,445.514933 L366.101238,443.184007 L377.379757,438.733086 L385.002948,433.964878 L390.02249,429.633385 L392.459772,426.666698 L382.512191,431.487787 L372.313871,434.766412 L363.638406,436.991576 L353.796587,438.588109 L342.736722,438.594645 L334.49203,439.177525 L322.802939,440.449047 L314.497642,443.151328 L306.974272,447.111466 Z M259.101465,468.146244 L271.386507,453.741206 L281.506991,443.727672 L291.778989,437.952348 L303.269627,432.017786 L312.952208,429.110516 L326.44282,428.315517 L339.893622,429.269753 L350.808511,429.043969 L360.053189,428.196089 L354.973637,433.116999 L348.583347,434.971401 L339.801526,436.030804 L327.780889,435.925042 L316.734689,436.560803 L307.15787,438.150206 L297.793763,441.435368 L288.959061,446.634942 L282.44875,452.767363 L273.614048,460.820732 L265.520869,467.391055 L261.560731,468.662577 L259.101465,468.146244 Z M319.071793,601.506734 L325.320173,595.128981 L334.44478,589.636043 L345.972787,588.486323 L356.744582,588.074333 L366.349715,590.202818 L374.72735,593.009738 L382.442721,595.825128 L377.379485,597.678696 L370.804593,598.640519 L362.393845,596.666819 L351.501918,595.370784 L342.033859,595.722708 L332.721354,598.538869 L325.803779,601.697712 L319.071793,601.506734 Z M293.142631,596.693001 L301.777471,589.638354 L310.952903,583.827375 L322.196753,578.136529 L333.939611,575.458981 L345.733294,575.458981 L361.646873,576.162829 L373.655407,579.862264 L389.217062,584.403391 L400.804365,584.403391 L412.254595,584.197781 L421.996801,582.549823 L432.005453,579.665126 L436.253951,576.112004 L439.317305,574.147545 L436.099166,581.408573 L429.309424,586.970817 L416.486152,592.533062 L406.065511,593.769801 L395.259832,593.581133 L383.741066,591.864638 L370.592052,587.743972 L359.124111,585.134961 L346.31855,584.525833 L334.644229,584.869286 L320.808309,586.79139 L309.761598,590.843519 L303.186706,594.345046 L298.654051,596.130847 L295.453623,597.29828 L293.142631,596.693001 Z" id="Path-1" fill="#FFFFFF"></path>
        </g>
    </g>
</svg>