<?xml version="1.0" encoding="UTF-8" standalone="no"?>
<svg width="256px" height="256px" viewBox="0 0 256 256" version="1.1" xmlns="http://www.w3.org/2000/svg" xmlns:xlink="http://www.w3.org/1999/xlink">
    <!-- Generator: Sketch 3.6.1 (26313) - http://www.bohemiancoding.com/sketch -->
    <title>Wolfswood</title>
    <desc>Created with Sketch.</desc>
    <defs></defs>
    <g id="Page-1" stroke="none" stroke-width="1" fill="none" fill-rule="evenodd">
        <g id="Wolfswood" fill="#FFFFFF">
            <path d="M99.3721145,197.940465 L104.721236,195.920348 L106.660108,195.429688 L140.4783,193.991664 L144.046197,194.379608 L150.953638,197.312533 L159.034249,201.304876 L170.085984,207.285326 L174.865251,208.581585 L180.398334,208.051876 L184.078285,205.88635 L186.557052,202.479743 L189.120708,198.174159 L190.700498,194.181816 L191.892343,189.765026 L185.84568,189.972156 L185.628363,188.629208 L186.2905,186.75655 L188.900845,182.394939 L179.50445,186.568096 L177.016345,187.022254 L174.916185,186.871151 L174.982398,184.553673 L176.855056,180.268462 L170.535049,183.589331 L168.955259,183.967937 L167.385656,183.599518 L164.973103,182.539251 L164.755786,180.827883 L165.664102,177.980696 L166.733707,175.254901 L162.977356,177.941647 L161.01896,179.596988 L159.363619,179.823643 L156.884852,179.521437 L153.867038,177.799882 L153.715935,176.153879 L155.532566,171.555426 L152.448538,173.276981 L150.328853,174.4128 L148.890828,174.4128 L147.320376,173.287168 L145.144664,170.799063 L144.26606,168.490923 L143.811902,165.861053 L143.811902,161.86871 L144.483377,159.314392 L146.573351,156.032572 L148.985904,154.018149 L151.247355,152.806779 L152.609828,152.806779 L152.675192,154.897602 L151.417982,157.990968 L153.935798,156.940887 L155.752429,155.371285 L158.164982,154.235466 L160.577536,154.452782 L162.260041,155.266022 L163.990934,157.290631 L163.612328,159.380605 L162.477358,162.899266 L164.823698,161.30929 L166.299073,160.193845 L167.707387,159.976528 L169.939126,159.976528 L171.660681,160.572451 L172.786312,161.38569 L173.231132,163.314375 L173.013816,166.777009 L175.804975,165.197219 L177.535868,163.844084 L179.040106,163.844084 L181.377108,164.752399 L183.315979,165.737115 L183.703923,167.231166 L183.023111,169.492617 L181.962844,171.668329 L185.662319,169.624195 L187.581666,168.205695 L189.076566,168.205695 L191.413568,169.179375 L194.128327,170.683613 L196.133412,172.481568 L195.139358,174.278675 L192.973833,178.129252 L198.858358,176.407698 L201.090097,176.407698 L202.584998,176.407698 L203.028968,178.649624 L206.794657,178.658962 L208.894818,177.911936 L211.060344,175.46288 L213.7004,173.428933 L215.704636,172.151349 L219.915145,170.334718 L222.818358,168.62335 L220.964376,167.799924 L220.292902,166.674293 L221.125666,165.065641 L222.762331,163.646292 L224.10528,162.767688 L225.64602,162.985004 L225.64602,164.394166 L225.125649,166.276162 L227.130734,164.848324 L227.782683,163.372948 L228,160.394183 L228,158.162444 L224.385414,155.739704 L221.69018,154.831389 L218.000042,152.750752 L211.946588,148.373012 L207.983956,144.597986 L205.950009,142.19477 L202.042555,139.933319 L195.969576,136.783927 L193.122389,136.177818 L188.665702,131.306871 L183.452651,126.159184 L179.762514,119.941893 L175.628406,113.272991 L170.585982,108.665201 L164.994325,104.784912 L160.547824,101.908863 L157.832216,99.3545443 L154.767713,96.006511 L149.120029,93.6134821 L143.906129,90.9640876 L139.828048,87.8698732 L137.35013,85.6287961 L134.350992,82.4395058 L129.157465,81.455639 L126.310279,80.1025038 L123.170224,76.3571886 L115.705061,61.5805111 L112.374854,55.2511662 L110.445321,51.75967 L107.447031,44.6366102 L103.559951,34.2656865 L100.419047,31.3336106 L98.1117567,30.2173166 L96.2390992,30 L93.7798566,31.3726597 L91.8214609,35.0526101 L90.2416713,40.9931622 L88.9454119,48.9022967 L87.4309871,60.0109083 L86.60841,67.4752229 L83.5897471,73.9565197 L82.3690392,76.5303628 L79.0481704,78.8767026 L74.3453041,82.2731228 L69.9743549,86.9182644 L68.1475376,87.1551055 L62.2723503,86.2561279 L54.8267113,85.2722612 L49.2817433,83.6924716 L45.9039987,82.1780468 L43.2741287,80.6933332 L45.5355792,83.7773609 L47.7011048,84.6763384 L50.0941337,85.8113081 L49.9430308,87.3817598 L47.5211396,87.3817598 L42.6196323,87.8265797 L39.2427367,90.2391331 L36.6790803,94.0701865 L34.6442842,98.8197419 L32.610337,110.096434 L31.1723125,117.258543 L30.1977835,121.326437 L28.3522905,123.824729 L33.9142364,121.47754 L39.9609,117.844279 L44.7002687,115.649042 L46.583113,113.256013 L49.2885344,112.887594 L52.9880094,111.534459 L57.8037784,109.26367 L57.1323042,110.935989 L53.83096,112.904572 L47.1985603,116.59386 L39.6578453,120.823044 L33.5653414,124.048837 L31.2283394,125.193993 L29.2045789,125.563262 L31.0016851,129.706708 L31.6824971,133.633686 L31.2190016,139.376446 L30.2444726,145.782191 L35.5627862,141.249952 L41.4286357,136.907865 L47.7011048,133.577659 L53.5109274,132.017394 L59.224825,131.421471 L64.3623244,131.421471 L80.2468071,131.477498 L87.6262325,130.881575 L92.2900497,129.377337 L97.6160033,127.221149 L93.7654254,130.522494 L90.5201081,132.102283 L85.9972071,133.010598 L72.8945463,133.389205 L60.8878061,133.843362 L52.5143272,134.903629 L46.2511959,137.230445 L39.4108174,141.308526 L33.6680574,146.379812 L29.6655277,151.366208 L28,156.429005 L33.2334243,152.265186 L39.1841631,149.625129 L43.4990853,148.944317 L49.1662939,148.272843 L53.6229812,148.045339 L60.4166706,147.005446 L66.4531475,145.491021 L71.5804602,144.300024 L76.0269608,143.845867 L77.5880748,143.845867 L73.9174621,145.481683 L68.7799627,147.354341 L59.7519875,149.312736 L56.9048009,149.710867 L48.8539013,150.629369 L43.3573202,151.462133 L36.7911342,153.591156 L33.7529467,154.953629 L31.9558406,155.332235 L34.9643168,160.867866 L37.2817942,164.945947 L38.1043714,169.241344 L38.1043714,172.088531 L42.162928,174.32027 L46.9031456,175.673405 L51.6722255,175.673405 L57.0168548,173.856775 L60.2528342,170.943375 L63.8767577,167.793133 L69.5244417,163.488398 L75.2943663,161.085182 L80.5838176,160.631024 L85.1916078,161.075844 L80.6500312,162.777874 L75.4463181,163.458687 L70.9234171,165.776164 L66.5524679,169.172584 L61.5762582,174.281221 L56.9124409,177.289697 L54.1866461,178.187826 L48.0457553,178.501067 L43.6085925,178.04691 L38.51948,175.568143 L41.0084338,178.671695 L42.7495129,183.430588 L43.5822768,187.489145 L44.8590116,192.001859 L43.5058765,193.960255 L41.4625914,194.849046 L39.2962169,195.283679 L45.6620643,196.258208 L47.5550953,197.848184 L51.2715481,200.282809 L55.1883396,204.380414 L55.9353653,206.082444 L59.3054698,200.2896 L62.7112279,196.439022 L67.0728392,193.525622 L69.9395503,191.860943 L73.0600804,188.881329 L71.7833456,192.419514 L67.5634993,195.675018 L63.5609696,198.815073 L60.3156523,202.968706 L57.5253416,206.582442 L56.8530185,209.601105 L56.8530185,214.350661 L57.5346794,219.014478 L58.5745731,222.466925 L59.8810192,226.413428 L62.5703117,221.700375 L65.0847322,218.540796 L68.017657,214.708893 L72.9183153,210.792102 L78.4912967,206.573105 L77.8291603,210.262393 L75.8707646,214.633342 L74.8962356,218.741134 L78.5396836,213.679186 L83.9802378,206.790421 L89.4114541,200.517103 L93.9801953,197.735281 L98.1991927,196.221705 L100.006486,193.232754 L102.201722,189.694568 L105.322252,188.588461 L109.419858,187.225988 L114.916439,185.181854 L119.52423,183.677616 L123.573448,179.866087 L122.674471,183.111404 L119.958863,186.64959 L114.774674,188.532434 L109.864678,189.667404 L105.12446,191.237856 L102.93941,193.877912 L99.9207474,197.179256 L99.3721145,197.940465 Z M104.026091,184.35257 L105.814858,182.591261 L107.909635,180.686863 L109.80366,179.819785 L113.418416,178.945691 L117.033477,178.020645 L120.539619,176.248658 L123.365401,173.698376 L126.296746,170.906459 L129.496574,168.192951 L130.414603,167.784735 L130.142459,169.280307 L128.700584,171.613057 L125.714932,175.149709 L123.460286,177.404355 L120.256797,178.982302 L116.02331,180.475128 L112.030847,181.536245 L108.691591,182.811539 L106.763396,183.790891 L105.325182,184.521897 L104.026091,184.35257 Z M142.441721,154.110413 L143.230694,152.83512 L144.455037,151.78468 L146.083935,150.913941 L147.872703,150.342805 L149.579705,149.961742 L150.695129,150.039847 L150.426341,151.1211 L148.552757,152.256661 L146.002475,153.123739 L144.278693,154.119871 L142.441721,154.110413 Z M166.953903,155.026306 L169.310451,156.114577 L172.136233,157.580249 L175.727497,159.675331 L178.288458,160.814248 L176.822785,161.521761 L174.483018,161.280432 L171.823817,160.056089 L168.790876,158.314916 L167.29805,157.009113 L166.81173,156.142035 L166.953903,155.026306 Z M168.596836,185.738613 L176.741325,194.124432 L175.47671,194.641261 L173.953069,194.154941 L171.698423,191.924092 L170.10034,190.295195 L169.284213,189.077869 L168.393338,187.782744 L168.315234,186.574876 L168.596836,185.738613 Z M177.708474,190.527066 L179.418832,192.284714 L180.391472,193.63445 L181.639307,194.964051 L182.156137,196.592949 L182.778529,197.276665 L183.75422,196.868754 L183.832324,195.607495 L183.587639,194.315726 L181.90779,192.09525 L180.554697,190.898061 L179.388322,189.786297 L178.500803,189.378081 L177.916548,189.724668 L177.708474,190.527066 Z M200.858411,172.387691 L202.296625,173.693494 L203.548121,174.401008 L204.823415,174.972449 L206.013282,175.2989 L207.308712,174.972449 L208.451595,173.914687 L208.1285,173.105578 L207.098197,173.105578 L205.656322,173.105578 L204.27211,172.534441 L202.510801,171.554784 L201.527787,171.317115 L200.858411,172.387691 Z M202.511106,148.750824 L203.459644,149.753973 L204.755074,150.726308 L205.867142,151.375854 L207.227252,151.460975 L208.393627,151.053064 L209.34247,150.077068 L209.747025,149.182837 L209.420574,148.812453 L208.444578,148.757841 L207.172945,148.890557 L205.870498,148.972017 L204.268754,148.805435 L203.650023,148.342913 L202.511106,148.750824 Z M193.64995,140.982515 L194.897785,142.179705 L196.441562,143.34608 L197.930727,144.216514 L199.372907,145.087253 L200.756814,145.301429 L203.120074,145.301429 L204.990301,145.301429 L205.690798,145.056438 L203.630191,143.859554 L201.630909,142.937864 L200.141439,142.529953 L199.111136,142.529953 L197.567665,142.234012 L196.268574,141.747997 L195.180303,141.421241 L193.64995,140.982515 Z M184.142499,132.446317 L184.906237,133.276916 C184.906237,133.276916 185.248127,133.496108 185.419071,133.605704 L186.610331,133.560172 L186.863872,132.860658 L186.802524,131.83475 L185.974801,131.196584 L184.724829,131.071012 L184.110626,131.541189 L184.142499,132.446317 Z M170.841653,130.283069 L171.861809,130.873067 L172.927496,131.236365 L174.741106,131.511473 L176.592101,132.067203 L178.403075,132.595853 L179.853388,133.172911 L180.833523,133.856609 L181.728346,134.049042 L182.489449,134.006146 L181.594626,133.135527 L180.547391,132.411808 L178.977257,131.3061 L177.654912,130.665058 L175.630418,130.194881 L173.840772,129.9411 L172.227742,129.9411 L170.841653,130.283069 Z M154.168326,135.55591 L155.023129,135.812327 L157.151868,136.335465 L159.900322,136.525022 L161.521499,136.033517 L162.7928,135.045713 L162.261274,134.367526 L160.193883,134.046885 L158.660654,133.881532 L157.381445,133.881532 L155.613128,134.137949 L154.141486,134.885871 L154.168326,135.55591 Z M144.191793,129.752981 L146.702282,131.184842 L149.215647,132.183669 L151.47547,132.653847 L154.391912,132.907388 L157.509174,132.843403 L160.345816,132.779179 L162.458739,132.779179 L162.525599,132.162341 L161.422767,131.294358 L160.079094,130.931061 L157.560218,130.781524 L155.96588,130.845748 L154.280479,130.845748 L152.317092,130.589331 L150.27103,130.036477 L148.844921,129.352539 L147.287727,129.224331 L145.516774,128.839706 L144.753035,128.839706 L144.191793,129.752981 Z M148.746428,117.973622 L150.562674,120.361414 L152.315175,122.025488 L154.748499,123.521332 L158.30886,125.295162 L160.696891,126.293989 L162.977803,127.832491 L164.281455,128.409548 L165.176278,128.409548 L164.388336,126.9832 L163.218404,125.217758 L162.961987,124.15207 L162.17692,122.576185 L161.538514,121.705566 L160.387274,120.105716 L159.217582,118.933148 L158.066342,118.591179 L156.169816,118.062529 L153.995784,117.656576 L152.120826,117.656576 L150.309852,117.656576 L149.396337,117.429635 L148.746428,117.973622 Z M163.879576,114.563278 L165.498117,115.80007 L167.269071,117.330423 L168.976041,118.719388 L169.993321,119.721091 L171.336993,120.704102 L172.253144,120.639878 L172.677789,120.004348 L172.100732,118.599567 L170.717279,117.210362 L169.202742,115.928278 L167.386256,114.563278 L166.320568,114.135996 L165.383089,113.879579 L164.314526,113.943564 L163.879576,114.563278 Z M169.598391,111.581892 L170.367881,112.925565 L171.537573,114.39433 L172.98525,116.229508 L173.68764,117.375236 L174.392907,118.905589 L174.948397,120.505439 L176.062492,122.63969 L176.743554,123.961794 L177.699726,123.961794 L178.017491,123.096687 L178.017491,121.993855 L177.528621,119.856728 L176.142293,117.319399 L174.585099,115.591102 L172.587444,113.272806 L170.712486,111.437868 L169.838991,110.762317 L169.598391,111.581892 Z M135.040827,118.674574 L136.036779,117.584683 L137.511295,116.665896 L139.770879,115.447796 L142.057542,114.611685 L143.881457,114.2539 L145.441526,114.189676 L146.528542,115.108703 L146.403209,116.153062 L144.888672,116.580344 L142.711765,117.007865 L140.134176,117.181605 L139.370437,117.520699 L138.219198,117.798444 L137.135058,118.498198 L136.58484,118.879948 L135.040827,118.674574 Z M126.723575,99.2616614 L128.475836,101.251888 L130.17993,102.573992 L131.99354,103.215034 L134.512416,103.727868 L136.475563,103.984285 L138.994439,103.984285 L141.57754,103.856076 L144.328629,103.447487 L147.208166,103.447487 L149.950868,103.252179 L152.699321,103.252179 L155.234014,103.252179 L156.550846,103.850565 L157.808727,104.812248 L159.088175,104.112493 L157.766071,103.004149 L156.272862,102.152222 L154.635868,101.369791 L152.128015,101.006494 L148.88518,100.945146 L145.428825,100.883798 L142.739084,101.695704 L139.330897,101.759928 L135.914561,101.7386 L133.163472,101.48482 L130.73542,100.50732 L128.630885,99.7167414 L126.723575,99.2616614 Z M115.694534,87.3545731 L117.679009,89.8492455 L120.357966,92.066173 L124.650432,94.5023728 L128.280528,96.4044107 L132.273921,97.3018698 L135.449656,97.9187081 L138.988928,98.2793692 L142.450795,98.2364733 L144.563718,98.2364733 L147.052878,98.9417394 L148.820956,99.0299277 L149.752924,98.2448607 L148.150199,97.4384656 L145.596814,96.7571637 L143.193205,96.1403253 L140.457933,96.0363207 L136.026714,96.0202647 L133.019208,95.7909274 L129.207703,94.2948429 L125.663159,92.4572686 L121.482845,90.2587936 L118.02649,88.408039 L115.694534,87.3545731 Z M109.333958,67.3662798 L106.598685,62.4540996 L104.141157,58.9977441 L102.391532,56.8874573 L101.771818,55.653541 L101.900026,54.9111304 L102.581088,55.0822347 L103.983233,55.7659331 L107.186048,59.5726451 L108.681893,61.8509209 L110.132205,64.4337815 L111.197893,66.2260635 L111.625414,67.7509051 L111.817607,69.1585617 L110.989884,69.5618791 L109.875789,69.1130298 L109.875789,68.090238 L109.333958,67.3662798 Z M106.706285,78.470328 L106.455379,77.4046404 L104.12606,75.4599461 L101.09435,72.8341896 L98.7679061,70.1470847 L97.0583006,67.1795987 L95.9710452,64.302937 L95.7359565,61.6000158 L95.7333204,53.2154241 L95.7333204,49.0753702 L95.7973048,45.6801234 L96.1153097,43.0627543 L96.5425912,40.58941 L96.5425912,39.0962012 L96.2435181,38.4606708 L95.4795396,38.6531032 L94.6544525,39.6519308 L93.6714413,42.4243482 L93.3294723,44.9377127 L93.1372795,47.6890417 L93.2441598,52.4730134 L93.0517273,58.0264754 L93.1799357,62.3402697 L93.7569935,65.5004277 L94.7186765,68.4866058 L97.1762045,72.410263 L98.1378875,73.9971718 L100.114214,75.6983899 L102.071849,76.8256655 L104.096584,78.14777 L105.46422,78.7888121 L106.706285,78.470328 Z M102.183931,103.935532 L105.770555,105.625551 L109.098056,106.830162 L113.362602,107.984674 L117.455463,108.586979 L120.713728,108.817018 L123.238156,109.436023 L125.128944,109.871146 L127.314317,110.52355 L126.030337,111.508628 L123.761092,111.709397 L120.707911,111.322495 L117.984966,111.021343 L114.943982,110.500471 L112.591239,110.3665 L109.514791,109.546727 L107.492284,108.626382 L104.572887,107.440535 L102.879115,105.918073 L101.977721,104.519074 L102.183931,103.935532 Z M100.971627,108.449443 L102.241159,109.921807 L103.914291,110.992635 L107.015694,112.032315 L109.069348,113.167876 L111.043821,113.768117 L113.745751,113.782565 L116.136208,113.498112 L118.208813,112.711737 L116.745081,111.936246 L114.65784,111.936246 L112.037531,111.517822 L109.230901,110.58303 L106.997306,109.865705 L104.805553,108.761479 L102.753963,107.960469 L101.601515,107.611282 L100.971627,108.449443 Z M74.9212674,96.7269145 L77.6965448,96.8150455 L79.4598699,97.4448145 L81.3834972,97.7990331 L82.4289223,97.2952461 L82.9955591,96.075254 L82.1297855,95.0851932 L80.9650164,94.3326905 L79.2696256,94.2698407 L77.6733822,94.6476457 L76.5809257,95.1765726 L75.1719604,95.9683387 L74.9212674,96.7269145 Z M56.8535903,105.498647 L61.6528955,105.146158 L68.5181664,104.8883 L73.6468195,104.943467 L77.4144848,104.132907 L81.3364932,102.585138 L83.9873923,100.927034 L85.7328947,99.4207948 L86.5804387,98.3891549 L83.1212529,100.065647 L79.5748746,101.205761 L76.5580563,101.979543 L73.1356484,102.534723 L69.2896752,102.536996 L66.4226544,102.739687 L62.3578735,103.181848 L59.4697778,104.121544 L56.8535903,105.498647 Z M40.2062329,112.813311 L44.4782509,107.804083 L47.9975623,104.321962 L51.5695611,102.313643 L55.5653318,100.24995 L58.9323663,99.2389716 L63.6236107,98.9625177 L68.3010117,99.294345 L72.0965703,99.2158305 L75.3113279,98.9209877 L73.5449572,100.632192 L71.3227888,101.277044 L68.268986,101.645443 L64.0889127,101.608665 L60.2476916,101.829745 L56.917435,102.382446 L53.6611474,103.524833 L50.5889557,105.33294 L48.3250506,107.465437 L45.2528589,110.265927 L42.4385255,112.5507 L41.0614216,112.992861 L40.2062329,112.813311 Z M61.0603993,159.188276 L63.2332199,156.970467 L66.4062234,155.060345 L70.4149891,154.66054 L74.1607882,154.517274 L77.5008907,155.257436 L80.4141412,156.233518 L83.0970953,157.212546 L81.3363983,157.857108 L79.0500362,158.191574 L76.1252708,157.505237 L72.3376969,157.054552 L69.0452605,157.17693 L65.806917,158.156226 L63.4013898,159.254687 L61.0603993,159.188276 Z M52.0437562,157.514342 L55.0464475,155.061148 L58.237125,153.040431 L62.1470773,151.061488 L66.2305554,150.130394 L70.3317074,150.130394 L75.8655178,150.37515 L80.0413823,151.661597 L85.4528142,153.240735 L89.4821993,153.240735 L93.4639185,153.169236 L96.851687,152.596173 L100.33211,151.593044 L101.809488,150.357477 L102.874743,149.674353 L101.755663,152.199313 L99.3945887,154.133536 L94.935406,156.067758 L91.3117175,156.497824 L87.5541357,156.432216 L83.5485836,155.83532 L78.9761271,154.402393 L74.9882489,153.495132 L70.5352252,153.283313 L66.4755802,153.402746 L61.6642581,154.071141 L57.8228591,155.480234 L55.536497,156.69786 L53.960305,157.318857 L52.8473838,157.724822 L52.0437562,157.514342 Z" id="Path-1"></path>
        </g>
    </g>
</svg>