<?xml version="1.0" encoding="UTF-8"?>
<svg width="256px" height="256px" viewBox="0 0 256 256" version="1.1" xmlns="http://www.w3.org/2000/svg" xmlns:xlink="http://www.w3.org/1999/xlink">
    <!-- Generator: Sketch 39 (31667) - http://www.bohemiancoding.com/sketch -->
    <title>pong</title>
    <desc>Created with Sketch.</desc>
    <defs></defs>
    <g id="Page-1" stroke="none" stroke-width="1" fill="none" fill-rule="evenodd">
        <g id="pong" fill="#FFFFFF">
            <path d="M186,70 L196,70 L196,85 L205,85 L205,172 L196,172 L196,186 L186,186 L186,196 L172,196 L172,205 L85,205 L85,196 L70,196 L70,186 L61,186 L61,172 L51,172 L51,85 L61,85 L61,70 L70,70 L70,61 L85,61 L85,51 L172,51 L172,61 L186,61 L186,70 Z M109.5,164.625 L109.5,158.5 L127.875,158.5 L146.25,158.5 L146.25,164.625 L146.25,170.75 L127.875,170.75 L109.5,170.75 L109.5,164.625 Z M97.25,91.125 L97.25,85 L127.875,85 L158.5,85 L158.5,91.125 L158.5,97.25 L164.625,97.25 L170.75,97.25 L170.75,109.5 L170.75,121.75 L164.625,121.75 L158.5,121.75 L158.5,127.875 L158.5,134 L152.375,134 L146.25,134 L146.25,140.125 L146.25,146.25 L127.875,146.25 L109.5,146.25 L109.5,140.125 L109.5,134 L121.75,134 L134,134 L134,127.875 L134,121.75 L140.125,121.75 L146.25,121.75 L146.25,115.625 L146.25,109.5 L127.875,109.5 L109.5,109.5 L109.5,115.625 L109.5,121.75 L97.25,121.75 L85,121.75 L85,109.5 L85,97.25 L91.125,97.25 L97.25,97.25 L97.25,91.125 Z" id="Combined-Shape"></path>
        </g>
    </g>
</svg>