<?xml version="1.0" encoding="UTF-8" standalone="no"?>
<svg width="256px" height="256px" viewBox="0 0 256 256" version="1.1" xmlns="http://www.w3.org/2000/svg" xmlns:xlink="http://www.w3.org/1999/xlink">
    <!-- Generator: Sketch 3.6.1 (26313) - http://www.bohemiancoding.com/sketch -->
    <title>What The Fuck Should I Watch Tonight</title>
    <desc>Created with Sketch.</desc>
    <defs></defs>
    <g id="Page-1" stroke="none" stroke-width="1" fill="none" fill-rule="evenodd">
        <g id="What-The-Fuck-Should-I-Watch-Tonight" fill="#FFFFFF">
            <path d="M30,60 L227,60 L227,196 L30,196 L30,60 Z M38,69 L55,69 L55,102 L38,102 L38,69 Z M202,69 L219,69 L219,102 L202,102 L202,69 Z M38,112 L55,112 L55,145 L38,145 L38,112 Z M202,112 L219,112 L219,145 L202,145 L202,112 Z M38,155 L55,155 L55,188 L38,188 L38,155 Z M202,155 L219,155 L219,188 L202,188 L202,155 Z M63,69 L194,69 L194,188 L63,188 L63,69 Z" id="Combined-Shape"></path>
            <path d="M129,166 C149.98682,166 167,148.98682 167,128 C167,107.01318 149.98682,90 129,90 C108.01318,90 91,107.01318 91,128 C91,148.98682 108.01318,166 129,166 Z M116.234375,126.8125 C120.989202,126.8125 124.84375,122.957952 124.84375,118.203125 C124.84375,113.448298 120.989202,109.59375 116.234375,109.59375 C111.479548,109.59375 107.625,113.448298 107.625,118.203125 C107.625,122.957952 111.479548,126.8125 116.234375,126.8125 Z M141.617188,126.664062 C146.372014,126.664062 150.226562,122.809514 150.226562,118.054688 C150.226562,113.299861 146.372014,109.445312 141.617188,109.445312 C136.862361,109.445312 133.007812,113.299861 133.007812,118.054688 C133.007812,122.809514 136.862361,126.664062 141.617188,126.664062 Z M129.166983,147.789296 C136.296814,147.789296 147.591779,138.536737 147.591779,137.054687 C147.591779,135.572638 135.285701,138.394635 129.166983,138.394635 C123.002504,138.394635 110.742188,135.573284 110.742188,137.054687 C110.742188,138.536091 122.03445,147.789296 129.166983,147.789296 Z" id="Combined-Shape"></path>
        </g>
    </g>
</svg>