<?xml version="1.0" encoding="UTF-8"?>
<svg width="256px" height="256px" viewBox="0 0 256 256" version="1.1" xmlns="http://www.w3.org/2000/svg" xmlns:xlink="http://www.w3.org/1999/xlink">
    <!-- Generator: Sketch 39 (31667) - http://www.bohemiancoding.com/sketch -->
    <title>happyflowers</title>
    <desc>Created with Sketch.</desc>
    <defs></defs>
    <g id="Page-1" stroke="none" stroke-width="1" fill="none" fill-rule="evenodd">
        <g id="happyflowers" fill="#FFFFFF">
            <path d="M113.804681,62.0573834 C118.087507,51.4509582 126.728639,44 126.728639,44 C126.728639,44 134.963351,51.1005149 139.339574,61.3055086 C147.366501,53.0600939 158.307888,49.4479106 158.307888,49.4479106 C158.307888,49.4479106 163.588158,59.9329225 163.330153,71.5694221 C174.072571,66.7053233 186.034201,67.5900078 186.034201,67.5900078 C186.034201,67.5900078 186.908552,79.4119212 182.139669,90.1051663 C194.253366,89.4247745 205.482469,95.0797706 205.482469,95.0797706 C205.482469,95.0797706 201.733332,106.435994 193.155394,114.497166 C204.178511,118.65779 212,127.728639 212,127.728639 C212,127.728639 204.899485,135.963351 194.694491,140.339574 C202.939906,148.366501 206.552089,159.307888 206.552089,159.307888 C206.552089,159.307888 196.067077,164.588158 184.430578,164.330153 C189.294677,175.072571 188.409992,187.034201 188.409992,187.034201 C188.409992,187.034201 176.226383,187.935303 165.408612,182.918534 C166.171125,195.116352 160.447128,206.482469 160.447128,206.482469 C160.447128,206.482469 148.351233,202.489137 140.265215,193.315626 C136.262638,204.779153 126.728639,213 126.728639,213 C126.728639,213 117.65779,205.178511 113.497166,194.155394 C105.435994,202.733332 94.0797706,206.482469 94.0797706,206.482469 C94.0797706,206.482469 88.5205113,195.44347 89.0891805,183.448404 C78.412034,188.186817 66.6350446,187.315788 66.6350446,187.315788 C66.6350446,187.315788 65.7353212,175.15082 70.7392045,164.339246 C59.4675347,164.318727 49.5175308,159.307888 49.5175308,159.307888 C49.5175308,159.307888 53.0368405,148.647817 61.0573834,140.652597 C50.4509582,136.369772 43,127.728639 43,127.728639 C43,127.728639 50.8214886,118.65779 61.8446064,114.497166 C53.2666681,106.435994 49.5175308,95.0797706 49.5175308,95.0797706 C49.5175308,95.0797706 60.1679706,89.7161903 71.9135666,90.0646181 C67.6776319,79.6799576 68.4926977,68.6596281 68.4926977,68.6596281 C68.4926977,68.6596281 79.6707345,67.8328983 90.1197103,72.1718744 C90.0096905,60.7234132 95.1493908,50.5175308 95.1493908,50.5175308 C95.1493908,50.5175308 105.809461,54.0368405 113.804681,62.0573835 Z M155.711376,138.83738 C155.478476,139.490821 155.679617,140.401354 155.393785,141.086932 C154.081076,152.65606 144.299277,163.164684 132.950696,165.189281 C131.796782,165.649904 130.431142,165.639192 129.245469,165.832011 L124.90506,165.832011 C123.719388,165.639192 122.353747,165.649904 121.199833,165.189281 C108.961998,163.057562 98.9953609,151.124222 98.4391534,138.730258 L98.4391534,135.088125 C98.8269319,132.667178 99.3201505,130.149822 100.265301,127.835996 C101.222308,125.972081 102.207899,124.118879 103.335346,122.372797 L106.93471,117.445206 C114.985638,107.761418 122.036156,97.3599151 127.339924,86.026455 L128.800842,89.1597604 C133.183596,99.9629688 140.096491,109.528923 147.644567,118.516421 C148.459717,119.726895 149.338385,120.905232 150.291158,122.051433 C151.709731,124.258137 153.096544,126.486265 154.208112,128.907212 C154.97033,130.953234 155.446717,133.159938 155.711376,135.302369 L155.711376,138.83738 Z" id="Combined-Shape"></path>
        </g>
    </g>
</svg>