<svg width="256" height="256" viewBox="0 0 256 256" xmlns="http://www.w3.org/2000/svg"><g fill="#fff"><path d="M49.685 141.042c-1.497 5.533-2.298 11.37-2.298 17.405 0 35.316 27.448 63.946 61.307 63.946 18.067 0 34.31-8.152 45.53-21.123l-23.513-8.096-5.672-1.953 1.953-5.672c.54-1.567 1-3.447 1.37-5.565.48-2.727.79-5.695.957-8.69.06-1.09.1-2.12.12-3.058.012-.607.016-1.08.02-1.723.244-5.908-3.562-14.266-8.064-17.69l-.63-.55c-.202-.205-.736-.686-1.583-1.354-.508 4.493-.516 9.17.24 13.454l1.03 5.85-5.84 1.09c-11.992 2.238-24.93 4.605-37.79 6.915l-5.924 1.063-1.045-5.927c-.544-3.09-1.617-6.417-3.066-9.785-.788-1.83-1.634-3.552-2.477-5.104-.292-.537-.56-1.01-.797-1.414-.133-.227-.22-.37-.253-.423l-.22-.38c-2.382-4.515-8.178-9.26-13.352-11.215zM148.586 97.142c6.023-1.596 12.048-5.427 15.146-10.142 0 0 6.557-8.28 10.187-19.315l36.437 12.547c-2.907 8.443-2.786 20.74-2.786 20.74-.32 7.76 4.278 18.04 10.428 22.714 0 0 5.803 5.85 16.147 9.412l-13.752 39.937c-11.516-3.965-18.902-2.204-18.902-2.204-7.723.457-17.835 5.813-22.412 12.092 0 0-6.694 7.593-9.977 17.126-11.462-3.82-23.908-8.015-36.365-12.26 3.224-9.365 2.66-20.095 2.66-20.095.16-7.77-4.457-18.19-10.468-23.058 0 0-1.735-1.79-4.726-3.972 1.374-5.618 6.065-12.507 10.688-15.44l.444-.28.39-.356c.324-.254.622-.472.988-.717 1.13-.758 2.543-1.54 4.243-2.283 2.697-1.18 5.813-2.13 9.365-2.757l5.91-1.042-1.043-5.91-2.6-14.736zM40.164 85.3c6.96-3.384 13.24-12.387 13.824-20.157 0 0 1.72-10.423-.46-21.838l37.96-6.705c1.553 8.796 7.626 19.493 7.626 19.493 3.483 6.944 12.493 13.703 20.14 14.81 0 0 7.916 2.3 18.69.397l7.35 41.604c-11.997 2.12-17.603 7.244-17.603 7.244-6.534 4.147-12.78 13.738-13.736 21.45 0 0-2.172 9.89-.417 19.82-11.88 2.222-24.802 4.59-37.76 6.922-1.722-9.755-7.422-18.867-7.422-18.867-3.63-6.873-12.724-13.748-20.343-15.09 0 0-8.952-2.712-18.89-.957l-7.35-41.604c10.752-1.9 18.392-6.52 18.392-6.52z"/></g></svg>