<svg width="256" height="256" viewBox="0 0 256 256" xmlns="http://www.w3.org/2000/svg"><g fill="#fff" fill-rule="evenodd"><path d="M51.345 195.67s8.31.31 12.183-.773c4.085-1.144 6.435-2.87 6.435-2.87 2.9-1.678 6.768-5.3 8.692-8.05 0 0 2.02-3.37 5.48-6.83 3.2-3.2 11.06-8.14 11.06-8.14l-8.593-8.593-35.257 35.257zm50.308-54.604l-11.297 11.297c-1.173 1.173-1.176 3.073-.003 4.246l3.25 3.25-3.778 3.776 2.148 2.15 3.778-3.78 3.25 3.25c1.172 1.172 3.07 1.175 4.247-.003l11.296-11.297-12.89-12.89zm39.198-39.198l46.706-46.705c3.563-3.563 9.333-3.56 12.893-.002 3.56 3.56 3.557 9.333-.004 12.894L153.74 114.76l-12.89-12.892zM180.117 150.715h.05l.04 23.45 17.97 17.97-10.48 1.237-13.415-13.415-23.414.04v-.033l-.007.007L68.2 97.31l29.294-29.295 82.663 82.662-.038.038zm-18.25-8.56l-14.646 14.647-3.35-3.35 14.647-14.648 3.35 3.35zm-17.872-17.873l-14.647 14.647-3.35-3.352 14.646-14.647 3.35 3.352zM108.25 88.536L93.6 103.183l-3.35-3.35 14.646-14.648 3.35 3.35zm17.872 17.873l-14.647 14.646-3.35-3.35 14.646-14.648 3.352 3.35zm8.936 8.936l-9.764 9.764-3.35-3.35 9.763-9.766 3.35 3.352zm-17.873-17.873l-9.764 9.764-3.35-3.35 9.764-9.766 3.35 3.353zm35.746 35.746l-9.763 9.763-3.35-3.35 9.763-9.766 3.35 3.352zm-47.626-73.017L60.387 105.12 54.8 99.536l44.92-44.917 5.584 5.585zM53.602 79.51l-4.53 4.53-5.586-5.584L78.64 43.303l5.584 5.585-4.53 4.53 5.44 5.442-5.585 5.585-5.442-5.44-14.92 14.92 5.44 5.44-5.585 5.586-5.44-5.44z"/></g></svg>