<svg width="375" height="344" viewBox="0 0 375 344" xmlns="http://www.w3.org/2000/svg"><g fill="#FFF" fill-rule="evenodd"><path d="M98.745 2.298a1.806 1.806 0 0 0-2.682.324L3.76 131.042c-4.838 6.73-4.57 17.437.6 23.917l30.137 37.766 132.23-132.23L98.744 2.3zM275.98 1.298a1.806 1.806 0 0 1 2.683.324l92.303 128.42c4.838 6.73 4.57 17.437-.6 23.917l-30.137 37.766L208 59.496 275.98 1.3zM186.752 78.376l133.376 133.376-129.843 129.843a4.994 4.994 0 0 1-7.066 0L53.375 211.752 186.752 78.376zm47.25 146.634c8.56 0 15.5-6.94 15.5-15.5 0-8.56-6.94-15.5-15.5-15.5-8.562 0-15.5 6.94-15.5 15.5 0 8.56 6.938 15.5 15.5 15.5zm-93 0c8.56 0 15.5-6.94 15.5-15.5 0-8.56-6.94-15.5-15.5-15.5-8.562 0-15.5 6.94-15.5 15.5 0 8.56 6.938 15.5 15.5 15.5z"/></g></svg>