<svg width="256" height="256" viewBox="0 0 256 256" xmlns="http://www.w3.org/2000/svg"><path d="M211.2 83.672c11.432 9.75 18.812 23.726 18.812 43.467 0 52.302-45.29 79.6-93.512 86.86-48.223 7.26-92.984-25.004-92.984-66.702 0-3.828.432-7.663 1.25-11.472C33.763 131.38 26 120.596 26 108c0-16.57 13.43-30 30-30 8.37 0 15.938 3.427 21.38 8.955C94.944 72.515 116.793 63 136.5 63c5.975 0 12.158.243 18.366.813C158.086 50.715 169.91 41 184 41c16.57 0 30 13.43 30 30 0 4.528-1.003 8.823-2.8 12.672zm-102.43 98.183c13.182-1.386 22.745-13.195 21.36-26.377-1.386-13.183-10.734-28.032-23.916-26.646-13.183 1.385-25.207 18.48-23.82 31.663 1.384 13.182 13.194 22.745 26.376 21.36zm74.273-30.882c11.24-7.024 14.66-21.83 7.635-33.07-7.024-11.242-27.024-17.31-38.265-10.287-11.24 7.024-9.465 24.48-2.44 35.722 7.023 11.24 21.83 14.66 33.07 7.635zM111 173a8 8 0 1 0 0-16 8 8 0 0 0 0 16zm60-27a8 8 0 1 0 0-16 8 8 0 0 0 0 16zm-18.43 27.354c-4.45 1.62-13.094.588-12.503-4.553.28-2.432 3.86-4.63 7.472-6.12 4.018-1.66 8.19-2.382 10.33-.358 4.058 3.843-.85 9.412-5.3 11.032zm12.35 27.822c-9.326 3.768-29.466-6.106-26.93-12.955 1.23-3.324 11.704-1.984 19.556-5.298 8.315-3.508 14.093-11.532 17.75-9.773 7.107 3.418-1.05 24.258-10.375 28.026z" fill="#FFF" fill-rule="evenodd"/></svg>