<svg width="256" height="256" viewBox="0 0 256 256" xmlns="http://www.w3.org/2000/svg"><path d="M215.2 195.233c-.04-.24-.09-.48-.156-.72-.495-1.684-1.425-2.99-3.068-3.603-1.726-.612-4.58-.377-5.962.827-.923.765-1.523 1.827-1.918 2.942.007-1.136.014-2.27-.007-3.403-12.547-.007-25.093.016-37.64-.01 2.952-2.17 5.746-4.566 8.184-7.306 5.725-6.32 9.766-14.137 11.634-22.446 1.235-5.24 1.478-10.667 1.09-16.022-.764-8.757-3.84-17.3-8.852-24.53a51.755 51.755 0 0 0-15.515-14.644 50.322 50.322 0 0 0-19.238-6.907c-2.66-.434-5.36-.4-8.045-.436-8.664.012-17.433 2.15-24.816 6.755-6.22 3.845-11.262 9.41-14.992 15.654.416-1.283 1.017-2.496 1.582-3.718 2.98-6.177 6.83-11.908 11.146-17.23 4.493-5.53 9.512-10.62 14.857-15.33 10.654-9.327 22.558-17.265 35.388-23.293-.022-.547-.144-1.082-.258-1.617-8.646-.077-17.29.078-25.94.066-10.247.02-20.495-.008-30.743.07-8.164.06-16.327-.008-24.49.067-16.194.168-32.393-.003-48.59.21-.154.483-.32.96-.503 1.432.524.453 1.098.842 1.648 1.257 5.112 3.78 10.147 7.677 14.853 11.954 7.38 6.61 14.03 14.078 19.383 22.425 5.854 9.016 10.29 18.882 13.832 29.01 2.725 7.798 4.947 15.764 6.87 23.795.878 3.548 1.575 7.14 2.538 10.67 1.847 6.624 4.59 13.062 8.62 18.668 3.83 5.353 8.765 9.927 14.447 13.268 5.862 3.467 12.422 5.656 19.116 6.838 4.647.857 9.375 1.213 14.095 1.25 20.103.067 40.206.013 60.307.006.032-1.49.09-2.984.02-4.474.39 1.873 1.77 3.545 3.595 4.176 1.643.612 4.38.286 5.776-.756.988-.72 1.555-1.774 1.753-2.93 0 .717.004 1.434.01 2.152 5.678 1.804 11.33 3.694 17.023 5.44v-18.296c-1.378.296-2.672.88-4.01 1.315a4681.203 4681.203 0 0 0-13.02 4.566c0 .952 0 1.904-.003 2.857zM26.186 52.06c.283-.052.574-.05.862-.05h134.93c.872-.098 1.553.57 2.08 1.17.835.943.905 2.356.46 3.493-.433.99-1.416 1.826-2.526 1.865-45.046-.005-90.092-.003-135.137 0-1.062-.033-2.15-.615-2.606-1.6-.34-.635-.228-1.37-.246-2.06-.075-1.302.96-2.485 2.182-2.817zM132.89 113.91c2.276-.31 4.578-.277 6.864-.136 1.573-.007 3.12.31 4.665.582 7.208 1.4 13.962 5.026 19.124 10.24a37.017 37.017 0 0 1 9.92 17.864c1.555 6.805 1.14 14.056-1.224 20.63-3.41 9.714-11.116 17.787-20.618 21.762-7.407 3.155-15.863 3.698-23.652 1.71-6.335-1.66-12.242-5-16.844-9.66-5.318-5.197-8.964-12.068-10.328-19.367-.71-3.374-.685-6.852-.488-10.277.706-7.422 3.696-14.622 8.533-20.314 5.973-7.182 14.767-11.928 24.048-13.034zm4.577 14.01c.36-.234.875-.28 1.21.03.645.597 1.04 1.403 1.424 2.18.59 1.308 1.068 2.69 1.17 4.13.05 1.117.096 2.238.016 3.356-.37 3.212-1.742 6.33-3.98 8.682-.198.258-.638.456-.514.838.302 1.422.567 2.85.892 4.27 1.27-.155 2.6-.005 3.724.637 2.23 1.224 3.566 3.77 3.55 6.278.11 1.85-.55 3.743-1.855 5.07-.72.773-1.637 1.33-2.595 1.76.28 2.61 1.4 5.135 1.12 7.802a4.032 4.032 0 0 1-1.18 2.558c-2.012 2.11-5.67 2.292-7.908.44-.872-.74-1.438-1.862-1.424-3.014-.034-1.522.97-3.097 2.477-3.508 1.517-.34 3.104.88 3.327 2.374.023.765.13 1.628-.38 2.27-.448.66-1.223.94-1.96 1.122-.122.196.11.27.242.36 1.013.583 2.31.475 3.326-.047.823-.426 1.627-1.064 1.914-1.98.533-1.56.296-3.252-.106-4.81a83.983 83.983 0 0 0-.774-2.998c-1.535.174-3.12.274-4.617-.188-2.85-.796-5.17-3.026-6.34-5.704-1-2.136-1.125-4.595-.626-6.877.433-1.904 1.49-3.593 2.67-5.126 1.173-1.517 2.497-2.912 3.844-4.276.178-.197.416-.355.53-.6-.067-.532-.236-1.044-.336-1.57-.43-1.902-.486-3.867-.39-5.808.16-2 .61-4.033 1.662-5.764a5.838 5.838 0 0 1 1.887-1.887zm.596 4.523c.508-.254 1.243-.117 1.487.437.435.975.318 2.092.027 3.092-.515 1.756-1.447 3.377-2.607 4.79-.378.43-.756.877-1.233 1.206-.79-2.367-.408-4.986.53-7.255.39-.88.844-1.878 1.796-2.27zm-2.91 15.913c.148-.145.327-.254.51-.352.254 1.223.505 2.447.72 3.68-1.954.988-3.432 2.887-3.81 5.05-.043.627-.052 1.263.025 1.89.314 1.508 1.352 2.82 2.696 3.564.504.28 1.115.597 1.68.29.036-.616-.663-.767-1.052-1.077-1.14-.843-1.688-2.44-1.187-3.785.446-1.034 1.282-1.967 2.37-2.336.62 2.86 1.182 5.735 1.765 8.603.003.17.185.538-.124.532-1.86.44-3.912.288-5.6-.653-1.77-.966-3.11-2.733-3.438-4.733-.386-2.35.43-4.74 1.768-6.657 1.08-1.463 2.34-2.787 3.676-4.017zm3.265 6.727c.933.057 1.865.375 2.577.994 1.87 1.595 2.226 4.693.726 6.647-.415.5-.91.976-1.54 1.18-.582-2.942-1.195-5.876-1.762-8.82z" fill="#FFF" fill-rule="evenodd"/></svg>