<svg width="256" height="256" viewBox="0 0 256 256" xmlns="http://www.w3.org/2000/svg"><g fill="#FFF" fill-rule="evenodd"><path d="M30 60h197v136H30V60zm8 9h17v33H38V69zm164 0h17v33h-17V69zM38 112h17v33H38v-33zm164 0h17v33h-17v-33zM38 155h17v33H38v-33zm164 0h17v33h-17v-33zM63 69h131v119H63V69z"/><path d="M129 166c20.987 0 38-17.013 38-38s-17.013-38-38-38-38 17.013-38 38 17.013 38 38 38zm-12.766-39.188a8.61 8.61 0 1 0 0-17.218 8.61 8.61 0 0 0 0 17.22zm25.383-.148a8.61 8.61 0 1 0 0-17.22 8.61 8.61 0 0 0 0 17.22zm-12.45 21.125c7.13 0 18.425-9.253 18.425-10.735 0-1.482-12.306 1.34-18.425 1.34-6.164 0-18.425-2.822-18.425-1.34 0 1.48 11.292 10.734 18.425 10.734z"/></g></svg>