<svg width="1024" height="1024" viewBox="0 0 1024 1024" xmlns="http://www.w3.org/2000/svg"><g fill="none" fill-rule="evenodd"><path fill="#282D31" d="M0 0h1024v1024H0z"/><path d="M429.245 712.946l15.382-5.81 5.576-1.41 97.25-4.135 10.26 1.116 19.865 8.435 23.237 11.48 31.782 17.2 13.743 3.727 15.912-1.523 10.582-6.228 7.13-9.796 7.37-12.382 4.544-11.48 3.427-12.702-17.388.596-.625-3.862 1.904-5.385 7.507-12.543-27.022 12-7.154 1.307-6.04-.436.19-6.664 5.386-12.323-18.174 9.55-4.543 1.09-4.514-1.06-6.936-3.05-.625-4.92 2.61-8.19 3.077-7.837-10.803 7.726-5.63 4.76-4.762.652-7.128-.87-8.678-4.95-.435-4.733 5.225-13.224-8.868 4.952-6.096 3.266h-4.134l-4.516-3.237-6.257-7.154-2.527-6.638-1.306-7.562v-11.48l1.93-7.347 6.01-9.438 6.94-5.793 6.502-3.485h3.918l.188 6.013-3.615 8.896 7.24-3.02 5.225-4.514 6.937-3.266 6.938.625 4.84 2.338 4.976 5.822-1.09 6.01-3.263 10.118 6.747-4.572 4.243-3.208 4.05-.624h6.417l4.95 1.713 3.238 2.34 1.28 5.545-.626 9.958 8.027-4.543 4.977-3.892h4.326l6.72 2.612 5.576 2.832 1.116 4.296-1.958 6.503-3.05 6.256 10.64-5.88 5.52-4.078h4.298l6.72 2.8 7.807 4.326 5.766 5.17-2.857 5.168-6.228 11.073 16.922-4.95h10.718l1.276 6.447 10.83.027 6.04-2.15 6.227-7.042 7.592-5.85 5.762-3.673 12.108-5.224 8.35-4.92-5.332-2.37-1.93-3.236 2.393-4.626 4.708-4.08 3.862-2.528 4.43.625v4.052l-1.496 5.412 5.766-4.107 1.875-4.242.625-8.565v-6.418l-10.394-6.967-7.75-2.612-10.613-5.984-17.408-12.59-11.395-10.855-5.85-6.91-11.236-6.505-17.464-9.056-8.188-1.744-12.816-14.008-14.99-14.803-10.613-17.88-11.888-19.177-14.5-13.25-16.08-11.16-12.787-8.27-7.81-7.345-8.812-9.628-16.24-6.882-14.995-7.62-11.726-8.897-7.126-6.444-8.624-9.172-14.935-2.83-8.19-3.89-9.03-10.77-21.467-42.494-9.576-18.2-5.55-10.042-8.62-20.483-11.18-29.823-9.032-8.432-6.635-3.21-5.385-.625-7.072 3.947-5.632 10.583-4.542 17.083-3.727 22.744-4.354 31.945-2.366 21.466-8.68 18.638-3.51 7.4-9.55 6.75-13.525 9.766-12.57 13.358-5.253.68-16.895-2.584-21.41-2.83-15.947-4.543-9.713-4.355-7.563-4.27 6.503 8.87 6.227 2.585 6.882 3.264-.434 4.516h-6.965l-14.095 1.28-9.71 6.937-7.374 11.017-5.85 13.658-5.85 32.428-4.135 20.596-2.803 11.697-5.307 7.185 15.995-6.75 17.388-10.448 13.63-6.313 5.413-6.88 7.78-1.06 10.638-3.89 13.85-6.53-1.932 4.808-9.494 5.66-19.073 10.61-21.686 12.162-17.52 9.276-6.72 3.293-5.82 1.06 5.168 11.917 1.958 11.292-1.333 16.514-2.803 18.42 15.294-13.033 16.87-12.485 18.036-9.577 16.708-4.487 16.43-1.712h14.775l45.68.16 21.22-1.713 13.412-4.326 15.315-6.2-11.073 9.493-9.333 4.543-13.007 2.612-37.68 1.088-34.528 1.306-24.08 3.05-18.01 6.69-19.67 11.728-16.515 14.583-11.51 14.34-4.79 14.56 15.05-11.975 17.112-7.592 12.41-1.958 16.296-1.93 12.816-.655 19.537-2.99 17.36-4.355 14.744-3.425 12.787-1.306h4.49l-10.555 4.704-14.774 5.386-25.96 5.632-8.188 1.145-23.152 2.64-15.807 2.396-18.882 6.12-8.736 3.92-5.168 1.088 8.65 15.92 6.666 11.726 2.365 12.352v8.188l11.67 6.418 13.633 3.89h13.714l15.37-5.223 9.305-8.38 10.42-9.058 16.242-12.38 16.592-6.91 15.21-1.306 13.252 1.28-13.06 4.893-14.965 1.957-13.005 6.665-12.57 9.767-14.31 14.69-13.41 8.65-7.84 2.584-17.66.9-12.76-1.305-14.634-7.13 7.158 8.925 5.007 13.685 2.395 11.672 3.67 12.977-3.89 5.63-5.876 2.556-6.23 1.25 18.307 2.803 5.445 4.57 10.687 7.002 11.264 11.784 2.148 4.894 9.69-16.658 9.795-11.073 12.542-8.38 8.244-4.786 8.973-8.57-3.672 10.176-12.135 9.362-11.51 9.03-9.333 11.944-8.024 10.392-1.933 8.68v13.66l1.96 13.41 2.99 9.93 3.757 11.348 7.734-13.553 7.23-9.086 8.435-11.02 14.092-11.263 16.026-12.133-1.904 10.61-5.632 12.57-2.802 11.813 10.477-14.557 15.645-19.81 15.62-18.04 13.137-8 12.132-4.352 5.197-8.596 6.312-10.174 8.974-3.18 11.783-3.92 15.806-5.878 13.25-4.325 11.645-10.96-2.585 9.332-7.81 10.175-14.907 5.415-14.12 3.264-13.63 4.516-6.285 7.592-8.68 9.493-1.578 2.19zm13.383-39.074l5.144-5.065 6.024-5.477 5.447-2.493 10.395-2.514 10.396-2.66 10.082-5.096 8.126-7.334 8.43-8.028 9.202-7.804 2.64-1.172-.783 4.3-4.145 6.71-8.586 10.17-6.485 6.483-9.212 4.538-12.174 4.293-11.482 3.053-9.603 3.667-5.545 2.816-4.136 2.103-3.736-.488zM553.1 586.904l2.27-3.667 3.52-3.02 4.684-2.505 5.144-1.642 4.91-1.096 3.206.225-.773 3.108-5.386 3.265-7.334 2.494-4.957 2.865-5.283-.028zm70.49 2.634l6.776 3.13 8.127 4.215 10.327 6.024 7.365 3.276-4.215 2.034-6.73-.694-7.646-3.52-8.722-5.008-4.293-3.755-1.4-2.493.41-3.21zm4.724 88.32l23.42 24.115-3.635 1.486-4.383-1.4-6.483-6.415-4.596-4.684-2.347-3.5-2.56-3.724-.225-3.474.81-2.404zm26.203 13.77l4.918 5.054 2.797 3.882 3.59 3.823 1.485 4.684 1.79 1.968 2.805-1.174.225-3.627-.704-3.714-4.83-6.386-3.89-3.442-3.356-3.198-2.552-1.173-1.68.996-.598 2.308zm66.572-52.164l4.135 3.755 3.6 2.034 3.666 1.643 3.423.94 3.725-.94 3.287-3.042-.93-2.326h-7.109l-3.98-1.644-5.065-2.817-2.826-.684-1.925 3.078zm4.752-67.972l2.727 2.885 3.725 2.796 3.198 1.868 3.91.245 3.355-1.173 2.73-2.806 1.162-2.572-.94-1.065-2.806-.158-3.656.382-3.746.234-4.606-.48-1.78-1.33-3.274 1.174zm-25.482-22.34l3.588 3.443 4.44 3.354 4.282 2.502 4.147 2.504 3.98.616h12.174l2.015-.704-5.925-3.442-5.75-2.65-4.283-1.174h-2.963l-4.438-.85-3.736-1.398-3.13-.94-4.4-1.262zm-27.34-24.547l2.195 2.388 1.475.946 3.426-.132.73-2.012-.178-2.95-2.38-1.835-3.594-.36-1.767 1.352.092 2.603zm-38.25-6.22l2.933 1.696 3.065 1.045 5.215.792 5.323 1.598 5.208 1.52 4.17 1.66 2.82 1.965 2.573.554 2.188-.124-2.573-2.503-3.01-2.08-4.517-3.18-3.802-1.844-5.822-1.353-5.146-.73h-4.638l-3.986.984zm-47.948 15.162l2.458.738 6.122 1.504 7.904.544 4.662-1.413 3.656-2.84-1.53-1.95-5.944-.922-4.41-.476h-3.678l-5.085.738-4.232 2.15.077 1.927zm-28.69-16.687l7.22 4.117 7.228 2.873 6.498 1.352 8.387.73 8.965-.185 8.157-.185h6.076l.192-1.774-3.17-2.496-3.865-1.045-7.244-.43-4.585.185h-4.845l-5.646-.737-5.885-1.59-4.1-1.967-4.48-.37-5.092-1.105h-2.196l-1.614 2.627zm13.1-33.874l5.22 6.866 5.04 4.786 7 4.3 10.237 5.102 6.866 2.873 6.56 4.424 3.75 1.66h2.572l-2.266-4.102-3.364-5.077-.738-3.065-2.257-4.532-1.836-2.502-3.31-4.6-3.365-3.373-3.31-.983-5.454-1.52-6.252-1.168H575.726l-2.627-.653-1.87 1.566zm43.517-9.807l4.653 3.555 5.093 4.4 4.91 3.995 2.924 2.88 3.864 2.828 2.635-.185 1.22-1.827-1.66-4.04-3.978-3.995-4.355-3.686-5.224-3.925-3.065-1.23-2.695-.737-3.073.184-1.25 1.782zm16.445-8.575l2.212 3.864 3.364 4.223 4.164 5.277 2.02 3.295 2.028 4.4 1.598 4.6 3.203 6.14 1.96 3.8h2.75l.912-2.487v-3.17L654 488.4l-3.987-7.296-4.478-4.97-5.745-6.666-5.392-5.277-2.512-1.942-.69 2.357zM531.817 485l2.864-3.133 4.242-2.642 6.498-3.503 6.575-2.404 5.245-1.03 4.487-.184 3.126 2.643-.36 3.003-4.356 1.23-6.26 1.23-7.413.498-2.196.975-3.31.8-3.118 2.01-1.583 1.1-4.44-.592zM507.9 429.177l5.038 5.723 4.9 3.8 5.216 1.844 7.244 1.475 5.645.737h7.244l7.428-.37 7.91-1.174h8.282l7.887-.562H589.888l3.786 1.722 3.617 2.766 3.68-2.013-3.802-3.187-4.294-2.45-4.707-2.25-7.212-1.045-9.325-.176-9.94-.176-7.735 2.335-9.8.185-9.825-.06-7.91-.73-6.984-2.812-6.052-2.274-5.485-1.308zm-31.717-34.24l5.707 7.172 7.704 6.376 12.344 7.005 10.44 5.47 11.483 2.58 9.133 1.774 10.178 1.037 9.956-.122h6.076l7.158 2.028 5.085.253 2.68-2.258-4.61-2.32-7.342-1.958-6.912-1.774-7.865-.3-12.743-.046-8.648-.66-10.96-4.3-10.194-5.286-12.02-6.322-9.94-5.322-6.707-3.03zm-18.29-57.482l-7.867-14.126-7.067-9.94-5.032-6.068-1.782-3.548.368-2.135 1.96.492 4.03 1.965 9.21 10.947 4.303 6.552 4.17 7.427 3.065 5.155 1.23 4.385.552 4.048-2.38 1.16-3.204-1.29v-2.942l-1.558-2.082zm-7.557 31.932l-.722-3.064-6.698-5.593-8.72-7.552-6.69-7.727-4.915-8.533-3.126-8.272-.676-7.773-.007-24.11v-11.907l.185-9.764.914-7.525 1.228-7.113v-4.294l-.86-1.828-2.197.554-2.372 2.872-2.827 7.973-.982 7.226-.553 7.912.308 13.758-.554 15.97.368 12.405 1.66 9.09 2.765 8.586 7.067 11.283 2.766 4.563 5.683 4.892 5.628 3.242 5.823 3.802 3.934 1.842 3.572-.916zm-13.005 73.23l10.315 4.86 9.57 3.465 12.262 3.32 11.77 1.733 9.37.66 7.26 1.78 5.437 1.252 6.284 1.877-3.692 2.832-6.526.578-8.78-1.113-7.83-.867-8.745-1.498-6.766-.385-8.848-2.357-5.816-2.647-8.395-3.41-4.87-4.378-2.592-4.023.593-1.68zm-3.485 12.98l3.65 4.235 4.812 3.08 8.918 2.99 5.906 3.266 5.68 1.726 7.77.042 6.873-.818 5.96-2.262-4.21-2.23h-6l-7.536-1.203-8.07-2.687-6.424-2.063-6.303-3.176-5.9-2.303-3.314-1.003-1.81 2.41zm-74.914-33.71l7.982.254 5.07 1.81 5.533 1.02 3.006-1.45 1.63-3.507-2.49-2.848-3.348-2.163-4.876-.18-4.59 1.085-3.142 1.52-4.052 2.278-.72 2.182zm-51.956 25.225l13.802-1.012 19.742-.742 14.75.16 10.833-2.332 11.28-4.45 7.623-4.77 5.02-4.33 2.437-2.967-9.948 4.82-10.198 3.28-8.676 2.225-9.84 1.596-11.06.007-8.246.583-11.69 1.27-8.304 2.703-7.524 3.96zM259.1 468.147l12.287-14.405 10.12-10.012 10.272-5.776 11.49-5.934 9.682-2.907 13.49-.794 13.452.954 10.915-.226 9.243-.848-5.08 4.92-6.39 1.855-8.78 1.06-12.022-.105-11.045.636-9.577 1.59-9.364 3.285-8.835 5.2-6.51 6.132-8.836 8.054-8.093 6.57-3.96 1.273-2.46-.517zm59.972 133.36l6.248-6.377 9.125-5.494 11.528-1.15 10.772-.412 9.605 2.13 8.377 2.806 7.716 2.815-5.064 1.854-6.575.96-8.41-1.973-10.893-1.296-9.468.353-9.313 2.816-6.916 3.158-6.732-.19zm-25.93-4.813l8.635-7.055 9.176-5.81 11.244-5.69 11.743-2.68h11.793l15.914.705 12.008 3.7 15.562 4.54h11.587l11.45-.205 9.743-1.648 10.008-2.885 4.25-3.553 3.062-1.964-3.218 7.26-6.79 5.563-12.824 5.563-10.42 1.237-10.806-.19-11.52-1.715-13.148-4.12-11.468-2.61-12.805-.61-11.676.344-13.836 1.92-11.046 4.054-6.575 3.5-4.533 1.787-3.2 1.168-2.31-.605z" fill="#FFF"/></g></svg>