<svg width="256" height="256" viewBox="0 0 256 256" xmlns="http://www.w3.org/2000/svg"><path d="M99.372 197.94l5.35-2.02 1.938-.49 33.818-1.438 3.568.388 6.908 2.933 8.08 3.992 11.052 5.98 4.78 1.297 5.532-.53 3.68-2.166 2.48-3.406 2.563-4.306 1.58-3.992 1.192-4.417-6.046.207-.218-1.343.663-1.873 2.61-4.362-9.396 4.173-2.488.454-2.1-.15.066-2.318 1.873-4.286-6.32 3.32-1.58.38-1.57-.368-2.412-1.06-.217-1.712.908-2.847 1.07-2.725-3.757 2.687-1.958 1.655-1.656.227-2.48-.303-3.017-1.72-.15-1.646 1.816-4.6-3.084 1.723-2.12 1.136h-1.44l-1.57-1.126-2.175-2.488-.88-2.31-.453-2.63v-3.99l.67-2.556 2.09-3.28 2.414-2.016 2.26-1.21h1.364l.065 2.09-1.257 3.093 2.518-1.05 1.816-1.57 2.413-1.135 2.413.218 1.682.813 1.73 2.025-.378 2.09-1.135 3.52 2.347-1.59 1.475-1.116 1.407-.217h2.232l1.72.595 1.126.814.445 1.928-.216 3.463 2.79-1.58 1.732-1.353h1.504l2.337.908 1.94.985.387 1.494-.68 2.263-1.06 2.175 3.698-2.044 1.92-1.418h1.495l2.337.973 2.714 1.504 2.005 1.798-.994 1.797-2.166 3.85 5.884-1.722H202.585l.444 2.242 3.765.01 2.1-.748 2.165-2.45 2.64-2.033 2.005-1.28 4.21-1.815 2.903-1.712-1.854-.823-.67-1.126.832-1.608 1.636-1.42 1.343-.878 1.54.217v1.41l-.52 1.88 2.006-1.427.653-1.475.217-2.98v-2.23l-3.615-2.423-2.695-.91-3.69-2.08-6.053-4.377-3.963-3.775-2.034-2.403-3.907-2.262-6.073-3.15-2.848-.605-4.456-4.87-5.213-5.15-3.69-6.216-4.135-6.67-5.042-4.607-5.592-3.88-4.446-2.876-2.716-2.555-3.064-3.348-5.648-2.394-5.214-2.65-4.078-3.093-2.478-2.24-3-3.19-5.193-.984-2.847-1.353-3.14-3.746-7.465-14.776-3.33-6.33-1.93-3.49-2.998-7.123-3.887-10.37-3.14-2.933-2.308-1.117L96.24 30l-2.46 1.373-1.96 3.68-1.578 5.94-1.297 7.91L87.43 60.01l-.822 7.465-3.018 6.482-1.22 2.573-3.322 2.347-4.703 3.396-4.37 4.645-1.827.237-5.876-.9-7.445-.983-5.545-1.58-3.378-1.514-2.63-1.485 2.262 3.084 2.165.9 2.394 1.134-.15 1.572H47.52l-4.9.445-3.377 2.412-2.564 3.83-2.036 4.75-2.034 11.276-1.438 7.163-.974 4.066-1.846 2.5 5.562-2.348 6.047-3.634 4.74-2.195 1.883-2.394 2.706-.368 3.698-1.354 4.816-2.27-.672 1.672-3.3 1.97-6.633 3.688-7.542 4.23-6.093 3.225-2.337 1.144-2.023.37 1.797 4.143.68 3.927-.463 5.742-.976 6.406 5.32-4.532 5.865-4.342 6.27-3.33 5.81-1.56 5.715-.597h5.137l15.885.057 7.38-.595 4.663-1.505 5.326-2.156-3.85 3.302-3.246 1.58-4.523.91-13.102.377-12.007.453-8.374 1.06-6.263 2.327-6.84 4.08-5.742 5.07-4.002 4.986L28 156.43l5.233-4.165 5.95-2.64 4.316-.68 5.666-.672 4.457-.228 6.794-1.04 6.036-1.514 5.127-1.19 4.447-.454h1.56l-3.67 1.636-5.137 1.872-9.028 1.96-2.847.397-8.05.92-5.498.832-6.566 2.13-3.037 1.362-1.797.378 3.008 5.536 2.318 4.078.822 4.295v2.85l4.06 2.23 4.74 1.353h4.768l5.345-1.816 3.236-2.914 3.624-3.15 5.647-4.305 5.77-2.403 5.29-.454 4.608.446-4.542 1.702-5.204.68-4.523 2.318-4.37 3.397-4.977 5.108-4.664 3.01-2.725.898-6.14.313-4.438-.453-5.09-2.48 2.488 3.105 1.742 4.76.832 4.057L44.86 192l-1.354 1.958-2.043.89-2.167.434 6.366.974 1.893 1.59 3.717 2.435 3.916 4.097.747 1.702 3.37-5.792 3.406-3.85 4.363-2.914 2.867-1.665 3.12-2.98-1.277 3.54-4.22 3.255-4.002 3.14-3.244 4.154-2.79 3.612-.673 3.02v4.75l.682 4.662 1.04 3.453 1.306 3.946 2.69-4.713 2.515-3.16 2.933-3.83 4.9-3.918 5.573-4.22-.66 3.69-1.96 4.37-.974 4.11 3.644-5.063 5.44-6.89 5.43-6.273 4.57-2.782 4.22-1.513 1.806-2.99 2.196-3.537 3.12-1.107 4.098-1.362 5.496-2.044 4.608-1.504 4.05-3.812-.9 3.245-2.715 3.54-5.185 1.882-4.91 1.135-4.74 1.57-2.186 2.64-3.02 3.302-.548.76zm4.654-13.587l1.79-1.762 2.094-1.903 1.894-.867 3.614-.874 3.615-.925 3.507-1.77 2.825-2.552 2.932-2.792 3.2-2.713.918-.408-.273 1.495-1.44 2.333-2.987 3.537-2.255 2.254-3.203 1.578-4.234 1.493-3.992 1.06-3.338 1.277-1.93.98-1.437.73-1.3-.17zm38.416-30.243l.79-1.275 1.223-1.05 1.63-.87 1.788-.572 1.707-.38 1.115.077-.27 1.08-1.872 1.137-2.55.867-1.724.996-1.838-.01zm24.512.916l2.356 1.09 2.826 1.464 3.59 2.095 2.562 1.14-1.465.707-2.34-.242-2.66-1.224-3.032-1.74-1.492-1.307-.486-.868.142-1.116zm1.643 30.713l8.144 8.384-1.263.517-1.524-.485-2.255-2.23-1.598-1.63-.816-1.217-.89-1.295-.08-1.208.283-.836zm9.11 4.787l1.712 1.758.97 1.35 1.25 1.33.516 1.628.623.684.974-.408.078-1.263-.244-1.29-1.68-2.222-1.353-1.197-1.167-1.112-.887-.408-.583.347-.21.802zm23.15-18.14l1.44 1.306 1.25.708 1.276.572 1.19.327 1.296-.328 1.142-1.057-.323-.81h-2.474l-1.384-.57-1.76-.98-.984-.238-.67 1.07zm1.654-23.636l.95 1.004 1.295.972 1.112.65 1.36.085 1.167-.407.948-.976.405-.894-.326-.37-.975-.055-1.272.133-1.303.082-1.6-.167-.62-.462-1.14.408zm-8.86-7.767l1.248 1.197 1.544 1.166 1.49.87 1.44.87 1.385.215H204.99l.7-.244-2.06-1.196-2-.922-1.49-.408h-1.03l-1.542-.296-1.3-.486-1.088-.327-1.53-.437zm-9.508-8.537l.764.83.513.33 1.19-.046.254-.7-.06-1.025-.83-.638-1.25-.126-.613.47.032.906zm-13.3-2.163l1.02.59 1.065.363 1.814.275 1.852.557 1.81.53 1.45.576.982.684.894.192.76-.044-.893-.87-1.048-.724-1.57-1.106-1.322-.64-2.025-.47-1.79-.255h-1.612l-1.386.343zm-16.674 5.273l.855.256 2.13.523 2.747.19 1.62-.49 1.273-.99-.532-.677-2.066-.32-1.533-.166h-1.28l-1.767.256-1.472.748.028.67zm-9.976-5.803l2.51 1.432 2.514 1 2.26.47 2.916.252 3.117-.064 2.836-.064h2.113l.066-.618-1.103-.868-1.344-.363-2.52-.148-1.594.064h-1.686l-1.963-.257-2.046-.554-1.425-.683-1.557-.13-1.77-.383h-.765l-.56.913zm4.554-11.78l1.817 2.388 1.752 1.665 2.433 1.496 3.56 1.775 2.39 1 2.28 1.537 1.303.578h.896l-.788-1.427-1.17-1.765-.256-1.066-.785-1.576-.638-.87-1.153-1.6-1.17-1.173-1.15-.342-1.897-.527-2.174-.406h-3.685l-.914-.227-.65.544zm15.134-3.41l1.618 1.237 1.77 1.53 1.708 1.39 1.017 1 1.344.984.916-.064.425-.636-.577-1.404-1.383-1.39-1.514-1.282-1.817-1.365-1.065-.427-.937-.256-1.068.064-.435.62zm5.718-2.98l.77 1.343 1.17 1.468 1.447 1.836.703 1.145.705 1.53.555 1.6 1.114 2.135.682 1.322h.956l.317-.865v-1.103l-.488-2.137-1.388-2.538-1.557-1.73-1.998-2.317-1.875-1.835-.873-.676-.242.82zm-34.557 7.092l.997-1.09 1.474-.92 2.26-1.217 2.288-.836 1.823-.358 1.562-.064 1.087.92-.127 1.043-1.514.427-2.178.428-2.578.174-.764.34-1.15.276-1.085.7-.55.382-1.544-.205zm-8.316-19.413l1.752 1.99 1.704 1.322 1.814.64 2.518.514 1.964.256h2.518l2.584-.128 2.75-.41h2.88l2.743-.194h5.284l1.317.6 1.26.96 1.278-.7-1.322-1.108-1.493-.852-1.637-.782-2.508-.364-3.243-.06-3.456-.062-2.69.812-3.41.064-3.415-.02-2.752-.255-2.428-.978-2.104-.79-1.906-.455zm-11.03-11.907l1.985 2.494 2.678 2.216 4.292 2.436 3.63 1.902 3.994.898 3.176.617 3.54.36 3.46-.044h2.114l2.49.706 1.767.088.933-.785-1.603-.807-2.553-.68-2.404-.618-2.735-.104-4.43-.016-3.01-.23-3.81-1.495-3.545-1.838-4.18-2.198-3.457-1.852-2.33-1.053zm-6.36-19.99l-2.735-4.91-2.46-3.457-1.748-2.11-.62-1.234.128-.743.68.172 1.403.684 3.203 3.807 1.496 2.278 1.45 2.584 1.066 1.792.427 1.525.193 1.41-.828.402-1.114-.45V68.09l-.542-.724zm-2.628 11.105l-.25-1.065-2.33-1.945-3.032-2.626-2.326-2.687-1.71-2.967-1.087-2.877-.234-2.703-.003-8.385v-4.14l.064-3.395.318-2.617.428-2.474v-1.494l-.3-.635-.763.193-.826 1-.983 2.77-.34 2.515-.193 2.75.107 4.785-.192 5.553.128 4.314.577 3.16.962 2.987 2.456 3.923.962 1.587 1.976 1.7 1.958 1.13 2.025 1.32 1.367.642 1.242-.32zm-4.522 25.466l3.587 1.69 3.328 1.204 4.265 1.155 4.092.602 3.26.23 2.523.62 1.89.434 2.186.654-1.284.985-2.27.2-3.052-.388-2.723-.3-3.04-.522-2.354-.133-3.075-.82-2.023-.92-2.92-1.186-1.693-1.522-.902-1.4.206-.582zm-1.212 4.513l1.27 1.472 1.672 1.07 3.102 1.04 2.053 1.136 1.974.6 2.702.015 2.39-.285 2.073-.786-1.465-.776h-2.087l-2.62-.418-2.807-.935-2.233-.717-2.19-1.105-2.053-.8-1.152-.35-.63.84zm-26.05-11.723l2.775.088 1.763.63 1.923.354 1.046-.505.566-1.22-.866-.99-1.165-.752-1.695-.063-1.597.378-1.092.53-1.408.79-.25.76zM56.853 105.5l4.8-.354 6.864-.258 5.13.055 3.766-.81 3.922-1.548 2.65-1.658 1.747-1.506.847-1.03-3.46 1.676-3.545 1.14-3.017.774-3.422.555-3.846.002-2.867.203-4.065.442-2.888.94-2.616 1.377zm-16.648 7.313l4.272-5.01 3.52-3.48 3.572-2.01 3.995-2.063 3.367-1.01 4.692-.277 4.677.33 3.797-.077 3.214-.295-1.765 1.712-2.222.645-3.054.368-4.18-.036-3.842.22-3.33.552-3.257 1.143-3.07 1.808-2.265 2.132-3.072 2.8-2.814 2.286-1.38.443-.854-.18zm20.854 46.375l2.173-2.218 3.173-1.91 4.01-.4 3.745-.143 3.34.74 2.914.977 2.683.98-1.76.643-2.287.335-2.925-.687-3.787-.45-3.293.122-3.238.98-2.406 1.098-2.34-.067zm-9.016-1.674l3.002-2.453 3.19-2.02 3.91-1.98 4.085-.93h4.102l5.534.245 4.175 1.287 5.413 1.58h4.03l3.98-.073 3.39-.574 3.48-1.003 1.476-1.236 1.065-.683-1.12 2.525-2.36 1.934-4.46 1.934-3.623.43-3.758-.066-4.005-.597-4.574-1.433-3.988-.907-4.453-.212-4.06.12-4.81.668-3.842 1.41-2.287 1.218-1.576.62-1.113.407-.803-.21z" fill="#FFF" fill-rule="evenodd"/></svg>