<svg width="256" height="256" viewBox="0 0 256 256" xmlns="http://www.w3.org/2000/svg"><desc>Three overlayed pieces of confetti, reminiscent of carnivals.</desc><g fill="#fff"><path d="M49.685 141.042a66.575 66.575 0 0 0-2.298 17.405c0 35.316 27.448 63.946 61.307 63.946 18.067 0 34.31-8.152 45.53-21.123l-23.513-8.096-5.672-1.953 1.953-5.672c.54-1.567 1-3.447 1.37-5.565.48-2.727.79-5.695.957-8.69a88.402 88.402 0 0 0 .14-4.78c.244-5.91-3.562-14.267-8.064-17.69l-.63-.55c-.202-.206-.736-.687-1.583-1.355-.508 4.493-.516 9.17.24 13.454l1.03 5.85-5.84 1.09a5729.052 5729.052 0 0 1-37.79 6.915l-5.924 1.063-1.045-5.927c-.544-3.09-1.617-6.417-3.066-9.785a62.612 62.612 0 0 0-2.477-5.104 49.1 49.1 0 0 0-1.05-1.837l-.22-.38c-2.382-4.515-8.178-9.26-13.352-11.215z"/><path d="M148.586 97.142c6.023-1.596 12.048-5.427 15.146-10.142 0 0 6.557-8.28 10.187-19.315l36.437 12.547c-2.907 8.443-2.786 20.74-2.786 20.74-.32 7.76 4.278 18.04 10.428 22.714 0 0 5.803 5.85 16.147 9.412l-13.752 39.937c-11.516-3.965-18.902-2.204-18.902-2.204-7.723.457-17.835 5.813-22.412 12.092 0 0-6.694 7.593-9.977 17.126a5722.468 5722.468 0 0 1-36.365-12.26c3.224-9.365 2.66-20.095 2.66-20.095.16-7.77-4.457-18.19-10.468-23.058 0 0-1.735-1.79-4.726-3.972 1.374-5.618 6.065-12.507 10.688-15.44l.444-.28.39-.356c.324-.254.622-.472.988-.717 1.13-.758 2.543-1.54 4.243-2.283 2.697-1.18 5.813-2.13 9.365-2.757l5.91-1.042-1.043-5.91-2.6-14.736z"/><path d="M40.18 85.29c6.96-3.38 13.242-12.38 13.828-20.147 0 0 1.722-10.42-.454-21.832l37.952-6.69c1.55 8.793 7.618 19.49 7.618 19.49 3.48 6.942 12.487 13.703 20.132 14.81 0 0 7.912 2.304 18.685.405l7.336 41.596c-11.995 2.116-17.6 7.237-17.6 7.237-6.536 4.144-12.783 13.73-13.742 21.44 0 0-2.174 9.888-.423 19.816a5722.414 5722.414 0 0 1-37.75 6.908c-1.72-9.752-7.416-18.864-7.416-18.864-3.627-6.872-12.716-13.748-20.333-15.09 0 0-8.948-2.717-18.884-.965L21.79 91.806c10.75-1.896 18.39-6.514 18.39-6.514z"/></g></svg>