<?xml version="1.0" encoding="UTF-8"?>
<svg width="256px" height="256px" viewBox="0 0 256 256" version="1.1" xmlns="http://www.w3.org/2000/svg" xmlns:xlink="http://www.w3.org/1999/xlink">
    <!-- Generator: Sketch 39 (31667) - http://www.bohemiancoding.com/sketch -->
    <title>count</title>
    <desc>Created with Sketch.</desc>
    <defs></defs>
    <g id="Page-1" stroke="none" stroke-width="1" fill="none" fill-rule="evenodd">
        <g id="count" fill="#FFFFFF">
            <path d="M103,102 L103,85 L88,85 L88,102 L70,102 L70,117 L88,117 L88,135 L103,135 L103,117 L120,117 L120,102 L103,102 Z M46,49.0042462 C46,47.3450468 47.3442147,46 49.0042462,46 L206.995754,46 C208.654953,46 210,47.3442147 210,49.0042462 L210,206.995754 C210,208.654953 208.655785,210 206.995754,210 L49.0042462,210 C47.3450468,210 46,208.655785 46,206.995754 L46,49.0042462 Z M137,157 L187,157 L187,172 L137,172 L137,157 Z" id="Combined-Shape"></path>
        </g>
    </g>
</svg>