<svg width="256" height="256" viewBox="0 0 256 256" xmlns="http://www.w3.org/2000/svg"><g fill="#FFF" fill-rule="evenodd"><path d="M135.226 146.41l-.007 4.766-13.082.09c-7.338.07-13.24.177-13.95.284-.673.107-1.878.267-2.658.356-3.563.427-6.7 1.263-8.862 2.33-1.702.854-2.393 1.423-3.634 2.775-.3-.817-.408-2.454-.195-3.22.478-1.795 2.02-3.29 4.59-4.48l1.347-.624-.975-.925c-5.76-5.406-12.957-7.825-19.302-6.51-3.882.802-6.38 2.403-8.366 5.32-1.95 2.88-3.457 7.31-4.22 12.52-.212 1.37-.424 3.132-.477 3.897-.107 1.405-.25 1.654-.585 1.05-.355-.694-8.74-10.602-10.015-11.847-.478-.48-2.41-2.97-3.616-4.696-4.2-5.994-6.52-13.002-5.866-17.75.302-2.26.64-3.38 1.578-5.3 1.507-3.06 4.024-5.462 7.55-7.205 3.067-1.513 5.602-2.1 9.838-2.26 5.62-.214 11.68 1.032 17.087 3.522 11.042 5.07 22.12 15.937 27.19 26.698.69 1.476.76 1.547 1.222 1.476a62.97 62.97 0 0 1 2.41-.195c1.046-.053 1.896-.16 1.896-.213 0-.07-.14-.373-.32-.658-.176-.303-.584-1.015-.92-1.602-1.028-1.903-3.262-5.247-6.56-9.87-1.417-1.976-3.526-5.195-4.164-6.316-.266-.498-.833-1.405-1.24-2.045-1.206-1.904-2.535-4.82-3.475-7.595-1.524-4.518-1.932-6.795-1.932-11.117 0-5.425 1.028-9.41 3.67-14.07 1.754-3.13 3.243-4.856 10.156-11.775 6.523-6.528 8.083-8.288 10.14-11.472 3.154-4.856 5.12-9.605 6.416-15.44.85-3.84 1.028-5.3 1.045-9.053.02-1.78.054-3.22.072-3.184.018.02.284.713.602 1.55 2.163 5.904 3.014 11.56 2.535 17.2-.337 3.93-1.153 8.11-2.18 10.973-.107.285-.444 1.245-.745 2.135-1.028 2.934-3.687 8.04-5.495 10.583-1.702 2.384-2.464 3.576-3.013 4.66a29.94 29.94 0 0 1-1.028 1.922c-1.455 2.49-3.9 9.178-4.805 13.162-1.063 4.643-1.33 7.062-1.33 12.63 0 3.983.072 5.55.32 7.292.94 6.474 2.464 11.42 5.264 17.146.992 2.046 1.913 4.02 2.038 4.358l.212.64 5 .054 1.86.013 8.622.023h.354zm-.026 6.936h-5.795c-17.76 0-19.16.072-24.017.98-3.102.586-4.91 1.155-7.037 2.222-3.562 1.814-5.387 4.75-4.838 7.81l.142.78.478-.71c1.028-1.583 3.527-3.113 6.665-4.127 3.457-1.12 6.665-1.617 12.337-1.902l2.463-.125-.106 1.05c-.123 1.085-.743 3.112-1.275 4.18-.567 1.067-2.02 2.88-3.226 3.984-1.79 1.636-3.723 2.775-6.56 3.895-2.71 1.085-4.342 1.423-10.953 2.24-6.044.766-8.95 1.442-12.124 2.847-7.39 3.29-9.43 7.932-6.558 14.87.532 1.298 2.694 4.766 3.244 5.21.265.232.37.18.956-.444 1.63-1.743 4.325-3.13 8.827-4.535 2.48-.764 8.756-1.013 11.77-.444 1.612.302 2.037.41 4.607 1.21 4.22 1.333 8.35 4.304 11.256 8.11.903 1.192 2.392 3.93 2.995 5.497.675 1.814 1.49 4.91 1.738 6.563.124.818.266 1.494.337 1.494.142 0 .39-1.37.71-3.753.318-2.33.105-6.76-.444-9.09-.495-2.17-1.842-5.193-2.977-6.723-3.616-4.838-9.217-7.826-17.246-9.196-2.535-.444-9.27-.444-11.574 0-2.092.41-5.424 1.53-6.877 2.348-.64.338-1.223.623-1.312.623-.266 0-.567-1.922-.443-2.723.55-3.237 4.202-5.478 10.866-6.634 4.467-.765 8.916-1.672 10.582-2.135 3.917-1.102 8.65-3.415 11.113-5.425 3.386-2.757 5.55-6.9 5.94-11.366l.14-1.51h16.2v-5.07zM92.644 132.91c1.117.853 6.664 6.385 7.923 7.88 2.02 2.418 4.45 6.01 4.272 6.313-.055.07-.71.25-1.455.374l-1.364.23-.372-.515c-.195-.285-1.134-1.28-2.056-2.223-2.428-2.474-4.573-4.003-8.206-5.853-2.677-1.352-3.953-1.814-7.57-2.722l-2.923-.73h-3.545c-3.44-.017-3.58 0-4.963.5-2.25.8-3.28 1.404-4.556 2.72-2.447 2.51-3.652 5.995-4.237 12.31-.124 1.28-.283 2.33-.372 2.33-.088 0-.353-.34-.602-.766-1.7-2.918-4.27-7.756-4.945-9.374-.248-.587-.638-1.477-.868-1.992-.23-.516-.656-1.78-.94-2.81-.425-1.62-.496-2.19-.496-4.27 0-2.027.052-2.58.407-3.575 1.01-2.954 4.06-5.23 8.1-6.048 2.712-.552 7.71-.588 10.847-.072 6.363 1.032 11.77 3.54 17.92 8.29z"/><path d="M120.774 146.41l.007 4.766 13.082.09c7.338.07 13.24.177 13.95.284.673.107 1.878.267 2.658.356 3.563.427 6.7 1.263 8.862 2.33 1.702.854 2.393 1.423 3.634 2.775.3-.817.408-2.454.195-3.22-.478-1.795-2.02-3.29-4.59-4.48l-1.347-.624.975-.925c5.76-5.406 12.957-7.825 19.302-6.51 3.882.802 6.38 2.403 8.366 5.32 1.95 2.88 3.457 7.31 4.22 12.52.212 1.37.424 3.132.477 3.897.107 1.405.25 1.654.585 1.05.355-.694 8.74-10.602 10.015-11.847.478-.48 2.41-2.97 3.616-4.696 4.2-5.994 6.52-13.002 5.866-17.75-.302-2.26-.64-3.38-1.578-5.3-1.507-3.06-4.024-5.462-7.55-7.205-3.067-1.513-5.602-2.1-9.838-2.26-5.62-.214-11.68 1.032-17.087 3.522-11.042 5.07-22.12 15.937-27.19 26.698-.69 1.476-.76 1.547-1.222 1.476a62.97 62.97 0 0 0-2.41-.195c-1.046-.053-1.896-.16-1.896-.213 0-.07.14-.373.32-.658.176-.303.584-1.015.92-1.602 1.028-1.903 3.262-5.247 6.56-9.87 1.417-1.976 3.526-5.195 4.164-6.316.266-.498.833-1.405 1.24-2.045 1.206-1.904 2.535-4.82 3.475-7.595 1.524-4.518 1.932-6.795 1.932-11.117 0-5.425-1.028-9.41-3.67-14.07-1.754-3.13-3.243-4.856-10.156-11.775-6.523-6.528-8.083-8.288-10.14-11.472-3.154-4.856-5.12-9.605-6.416-15.44-.85-3.84-1.028-5.3-1.045-9.053-.02-1.78-.054-3.22-.072-3.184-.018.02-.284.713-.602 1.55-2.163 5.904-3.014 11.56-2.535 17.2.337 3.93 1.153 8.11 2.18 10.973.107.285.444 1.245.745 2.135 1.028 2.934 3.687 8.04 5.495 10.583 1.702 2.384 2.464 3.576 3.013 4.66.3.624.762 1.477 1.028 1.922 1.455 2.49 3.9 9.178 4.805 13.162 1.063 4.643 1.33 7.062 1.33 12.63 0 3.983-.072 5.55-.32 7.292-.94 6.474-2.464 11.42-5.264 17.146-.992 2.046-1.913 4.02-2.038 4.358l-.212.64-5 .054-1.86.013-8.622.023h-.354zm.026 6.936h5.795c17.76 0 19.16.072 24.017.98 3.102.586 4.91 1.155 7.037 2.222 3.562 1.814 5.387 4.75 4.838 7.81l-.142.78-.478-.71c-1.028-1.583-3.527-3.113-6.665-4.127-3.457-1.12-6.665-1.617-12.337-1.902l-2.463-.125.106 1.05c.123 1.085.743 3.112 1.275 4.18.567 1.067 2.02 2.88 3.226 3.984 1.79 1.636 3.723 2.775 6.56 3.895 2.71 1.085 4.342 1.423 10.953 2.24 6.044.766 8.95 1.442 12.124 2.847 7.39 3.29 9.43 7.932 6.558 14.87-.532 1.298-2.694 4.766-3.244 5.21-.265.232-.37.18-.956-.444-1.63-1.743-4.325-3.13-8.827-4.535-2.48-.764-8.756-1.013-11.77-.444-1.612.302-2.037.41-4.607 1.21-4.22 1.333-8.35 4.304-11.256 8.11-.903 1.192-2.392 3.93-2.995 5.497-.675 1.814-1.49 4.91-1.738 6.563-.124.818-.266 1.494-.337 1.494-.142 0-.39-1.37-.71-3.753-.318-2.33-.105-6.76.444-9.09.495-2.17 1.842-5.193 2.977-6.723 3.616-4.838 9.217-7.826 17.246-9.196 2.535-.444 9.27-.444 11.574 0 2.092.41 5.424 1.53 6.877 2.348.64.338 1.223.623 1.312.623.266 0 .567-1.922.443-2.723-.55-3.237-4.202-5.478-10.866-6.634-4.467-.765-8.916-1.672-10.582-2.135-3.917-1.102-8.65-3.415-11.113-5.425-3.386-2.757-5.55-6.9-5.94-11.366l-.14-1.51h-16.2v-5.07zm42.556-20.437c-1.117.853-6.664 6.385-7.923 7.88-2.02 2.418-4.45 6.01-4.272 6.313.055.07.71.25 1.455.374l1.364.23.372-.515c.195-.285 1.134-1.28 2.056-2.223 2.428-2.474 4.573-4.003 8.206-5.853 2.677-1.352 3.953-1.814 7.57-2.722l2.923-.73h3.545c3.44-.017 3.58 0 4.963.5 2.25.8 3.28 1.404 4.556 2.72 2.447 2.51 3.652 5.995 4.237 12.31.124 1.28.283 2.33.372 2.33.088 0 .353-.34.602-.766 1.7-2.918 4.27-7.756 4.945-9.374.248-.587.638-1.477.868-1.992.23-.516.656-1.78.94-2.81.425-1.62.496-2.19.496-4.27 0-2.027-.052-2.58-.407-3.575-1.01-2.954-4.06-5.23-8.1-6.048-2.712-.552-7.71-.588-10.847-.072-6.363 1.032-11.77 3.54-17.92 8.29z"/></g></svg>