<svg width="256" height="256" viewBox="0 0 256 256" xmlns="http://www.w3.org/2000/svg"><desc>A scalpel and a syringe, two basic tools of a surgeon.</desc><g fill="#fff" fill-rule="evenodd"><path d="M51.345 195.67s8.31.31 12.183-.773c4.085-1.144 6.435-2.87 6.435-2.87 2.9-1.678 6.768-5.3 8.692-8.05 0 0 2.02-3.37 5.48-6.83 3.2-3.2 11.06-8.14 11.06-8.14l-8.593-8.593-35.257 35.257zm50.308-54.604l-11.297 11.297a3 3 0 0 0-.003 4.246l3.25 3.25-3.778 3.776 2.148 2.15 3.778-3.78 3.25 3.25a2.998 2.998 0 0 0 4.247-.003l11.296-11.297-12.89-12.89zm39.198-39.198l46.706-46.705a9.114 9.114 0 0 1 12.893-.002c3.56 3.56 3.557 9.333-.004 12.894L153.74 114.76l-12.89-12.892zM180.125 150.718h.05l.04 23.454 17.973 17.973-10.482 1.236-13.417-13.415-23.418.04v-.033l-.007.007L68.19 97.303l29.298-29.3 82.675 82.677-.038.038zm-18.252-8.56l-14.65 14.648-3.35-3.352 14.648-14.65 3.353 3.353zm-17.876-17.877l-14.65 14.65-3.35-3.35 14.65-14.65 3.35 3.35zm-35.75-35.75l-14.65 14.65-3.352-3.353 14.65-14.65 3.35 3.353zm17.875 17.875l-14.65 14.65-3.35-3.352 14.648-14.65 3.352 3.352zm8.938 8.938l-9.767 9.766-3.35-3.352 9.765-9.766 3.352 3.35zm-17.876-17.875l-9.766 9.766-3.352-3.352 9.766-9.766 3.352 3.352zm35.75 35.75l-9.765 9.767-3.352-3.352 9.766-9.766 3.35 3.352zm-47.633-73.025l-44.923 44.924-5.587-5.586 44.925-44.924 5.586 5.587zM53.59 79.502l-4.53 4.532-5.586-5.586L78.632 43.29l5.586 5.586-4.532 4.53 5.442 5.443-5.586 5.585-5.442-5.442-14.923 14.923 5.442 5.442-5.587 5.586-5.442-5.442z"/></g></svg>