<svg width="256" height="256" viewBox="0 0 256 256" xmlns="http://www.w3.org/2000/svg"><g fill="none" fill-rule="evenodd"><path d="M0 0h256v256H0z"/><g fill="#FFF"><path d="M90.67 131.842v-6.96h-7.466v6.96h7.466zm0 5.965v7.457h-7.466v-7.457h7.466zm0-18.89v-4.218a3.738 3.738 0 0 0-3.733-3.736 3.737 3.737 0 0 0-3.733 3.736v4.218h7.466zm-13.44-4.214a9.705 9.705 0 0 1 9.707-9.706c5.36 0 9.706 4.35 9.706 9.706v36.527H77.23v-36.527z"/><path d="M77.23 151.23h5.974v-29.58c0-7.41-2.724-14.183-7.224-19.372a16.86 16.86 0 0 1 11.206-4.24c9.346 0 16.923 7.577 16.923 16.922v36.27h5.972v-36.265c0-12.64-10.25-22.893-22.895-22.893a22.816 22.816 0 0 0-15.564 6.1 29.442 29.442 0 0 0-17.992-6.1H18v5.965h32.38c14.83 0 26.85 12.016 26.85 26.845v26.348z"/><path d="M144.429 92.569h-30.863c-7.005 0-13.273 3.143-17.473 8.096a16.071 16.071 0 0 1 4.59 3.972 17.137 17.137 0 0 1 13.131-6.103c9.484 0 17.172 7.692 17.172 17.164v17.138h5.476v-17.374c0-6.706-2.886-12.74-7.483-16.928h15.45v10.915h5.988V65.697h-5.988V92.57z"/><path d="M163.34 132.5v-22.409c1.206.56 2.55.872 3.967.872h.028a9.44 9.44 0 0 0 9.443-9.446v-9.445h-13.443V65.69h-6.462v55.25h.494v47.422c0 9.208-7.464 16.672-16.675 16.672-9.209 0-16.674-7.46-16.674-16.672v-1.721h-5.973v1.712c0 12.503 10.14 22.647 22.647 22.647 12.51 0 22.647-10.14 22.647-22.647v-17.62h12.942v-9.446a9.44 9.44 0 0 0-9.444-9.445h-.027a9.418 9.418 0 0 0-3.47.658zm.497-34.463h6.968v3.48a3.485 3.485 0 0 1-6.968 0v-3.48zm-.498 46.73h6.969v-3.48a3.485 3.485 0 0 0-6.969 0v3.48z"/><path d="M149.9 162.615a22.819 22.819 0 0 1-9.457 2.037c-12.645 0-22.895-10.254-22.895-22.893v-3.952h5.972v3.953c0 9.352 7.577 16.927 16.923 16.927 3.504 0 6.758-1.064 9.457-2.887v6.815zm7.467-5.435a22.81 22.81 0 0 0 5.972-15.42v-13.373c0-12.639-10.25-22.893-22.896-22.893a22.798 22.798 0 0 0-10.92 2.767 17.062 17.062 0 0 1 1.413 5.623 16.843 16.843 0 0 1 9.507-2.921c9.347 0 16.924 7.575 16.924 16.926V157.18z"/><path d="M189.72 144.767v-2.957c0-1.365-.12-2.703-.35-4.003H238v-5.965h-50.56c-3.706-7.649-11.545-12.925-20.616-12.925-1.185 0-2.349.09-3.485.263v5.716c.248-.01.497-.014.747-.014 11.133 0 20.158 9.024 20.158 20.167v5.684H238v-5.966h-48.28zm-45.792 3.977v1.371-1.37z"/><path d="M163.339 118.917H238v5.966h-74.661z"/><path d="M189.523 104.997c.13-.984.196-1.988.196-3.008v-3.952H238v-5.965h-53.756v6.678c0 11.143-9.025 20.167-20.158 20.167-.25 0-.499-.005-.747-.014v5.716c1.136.173 2.3.263 3.485.263 9.459 0 17.578-5.738 21.069-13.92H238v-5.965h-48.477zm-45.595-9.942v-1.371 1.37zM130.986 166.64v1.98a9.455 9.455 0 0 0 9.457 9.455 9.456 9.456 0 0 0 9.457-9.456v-40.247a9.455 9.455 0 0 0-9.457-9.455 9.456 9.456 0 0 0-9.457 9.455v3.47h5.973v34.799h-5.973zm5.973-38.266a3.49 3.49 0 0 1 3.484-3.492 3.485 3.485 0 0 1 3.485 3.492v40.243a3.49 3.49 0 0 1-3.485 3.492 3.485 3.485 0 0 1-3.484-3.492v-40.243zM117.548 131.842v-6.96h-7.467v6.96h7.467zm0 5.965v7.457h-7.467v-7.457h7.467zm0-18.89v-4.218a3.738 3.738 0 0 0-3.734-3.736 3.737 3.737 0 0 0-3.733 3.736v4.218h7.467zm-13.44-4.214a9.705 9.705 0 0 1 9.706-9.706c5.36 0 9.706 4.35 9.706 9.706v36.527H104.11v-36.527zM64.29 145.264v-7.457H18v-5.965h46.29v-7.457H18v-5.965h46.159a8.991 8.991 0 0 0-8.863-7.457H18v-5.966h35.258c9.391 0 17.004 7.609 17.004 17.002v29.231H18v-5.966h46.29z"/><path d="M130.986 131.842H149.9v9.445a9.44 9.44 0 0 1-9.443 9.446h-.027c-5.216 0-9.444-4.228-9.444-9.446v-9.445zm5.973 5.965h6.969v3.48a3.485 3.485 0 0 1-6.969 0v-3.48z"/></g></g></svg>