<svg width="256" height="256" viewBox="0 0 256 256" xmlns="http://www.w3.org/2000/svg"><path d="M113.805 62.057C118.088 51.451 126.729 44 126.729 44s8.234 7.1 12.61 17.306c8.028-8.246 18.969-11.858 18.969-11.858s5.28 10.485 5.022 22.121c10.743-4.864 22.704-3.979 22.704-3.979s.875 11.822-3.894 22.515c12.113-.68 23.342 4.975 23.342 4.975s-3.749 11.356-12.327 19.417C204.18 118.657 212 127.73 212 127.73s-7.1 8.234-17.306 12.61c8.246 8.028 11.858 18.969 11.858 18.969s-10.485 5.28-22.121 5.022c4.864 10.743 3.979 22.704 3.979 22.704s-12.184.901-23.001-4.115c.762 12.197-4.962 23.563-4.962 23.563s-12.096-3.993-20.182-13.166C136.263 204.779 126.73 213 126.73 213s-9.071-7.821-13.232-18.845c-8.061 8.578-19.417 12.327-19.417 12.327s-5.56-11.039-4.99-23.034c-10.678 4.739-22.455 3.868-22.455 3.868s-.9-12.165 4.104-22.977c-11.271-.02-21.221-5.031-21.221-5.031s3.519-10.66 11.54-18.655C50.45 136.37 43 127.729 43 127.729s7.821-9.071 18.845-13.232c-8.578-8.061-12.327-19.417-12.327-19.417s10.65-5.364 22.396-5.015C67.678 79.68 68.493 68.66 68.493 68.66s11.178-.827 21.627 3.512c-.11-11.449 5.03-21.654 5.03-21.654s10.66 3.519 18.655 11.54zm41.906 76.78c-.233.654-.031 1.564-.317 2.25-1.313 11.57-11.095 22.078-22.443 24.102-1.154.46-2.52.45-3.706.643h-4.34c-1.186-.193-2.551-.182-3.705-.643-12.238-2.131-22.205-14.065-22.76-26.459v-3.642c.387-2.42.88-4.938 1.825-7.252.957-1.864 1.943-3.717 3.07-5.463l3.6-4.928c8.05-9.684 15.101-20.085 20.405-31.419l1.46 3.134c4.384 10.803 11.296 20.369 18.845 29.356a43.744 43.744 0 0 0 2.646 3.535c1.419 2.207 2.806 4.435 3.917 6.856.762 2.046 1.239 4.253 1.503 6.395v3.535z" fill="#FFF" fill-rule="evenodd"/></svg>