<?xml version="1.0" encoding="UTF-8" standalone="no"?>
<svg width="256px" height="256px" viewBox="0 0 256 256" version="1.1" xmlns="http://www.w3.org/2000/svg" xmlns:xlink="http://www.w3.org/1999/xlink" aria-labeledby="title">
  <title id="title">Countable</title>
  <desc>A rectangle with cut-out lines suggesting text, a cursor suggesting current text entry and cut-out rectangles for statistics at the bottom.</desc>
  <g transform="translate(24, 43)" fill="#FFFFFF" fill-rule="evenodd">
    <path d="M114,89 C115,89 115,90 115,90 L115,109 C115,110 114,110 114,110 L112,110 C111,110 111,111 111,111 L111,113 C111,114 112,114 112,114 L116,114 C117,114 117,113 117,113 C117,114 118,114 118,114 L122,114 C123,114 123,113 123,113 L123,111 C123,110 122,110 122,110 L120,110 C119,110 119,109 119,109 L119,90 C119,89 120,89 120,89 L122,89 C123,89 123,88 123,88 L123,86 C123,85 122,85 122,85 L118,85 C117,85 117,86 117,86 C117,85 116,85 116,85 L112,85 C111,85 111,86 111,86 L111,88 C111,89 112,89 112,89 L115,89 Z M3,0 C1,0 0,1 0,3 L0,166 C0,168 1,170 3,170 L204,170 C206,170 208,168 208,166 L208,3 C208,1 206,0 204,0 L3,0 Z M21,20 L21,30 L187,30 L187,20 L21,20 Z M21,45 L21,55 L187,55 L187,45 L21,45 Z M21,70 L21,80 L187,80 L187,70 L21,70 Z M21,95 L21,105 L104,105 L104,95 L21,95 Z M21,139 L21,149 L46,149 L46,139 L21,139 Z M162,139 L162,149 L187,149 L187,139 L162,139 Z M68,139 L68,149 L93,149 L93,139 L68,139 Z M115,139 L115,149 L140,149 L140,139 L115,139 Z"></path>
  </g>
</svg>