<?xml version="1.0" encoding="UTF-8" standalone="no"?>
<svg width="256px" height="256px" viewBox="0 0 256 256" version="1.1" xmlns="http://www.w3.org/2000/svg" xmlns:xlink="http://www.w3.org/1999/xlink">
    <!-- Generator: Sketch 3.6.1 (26313) - http://www.bohemiancoding.com/sketch -->
    <title>MGK</title>
    <desc>Created with Sketch.</desc>
    <defs></defs>
    <g id="Page-1" stroke="none" stroke-width="1" fill="none" fill-rule="evenodd">
        <g id="MGK" fill="#FFFFFF">
            <path d="M215.199861,195.232712 C215.161431,194.991806 215.109363,194.751776 215.044082,194.514458 C214.548976,192.82876 213.619049,191.522186 211.97644,190.91034 C210.249823,190.298494 207.395186,190.533002 206.013535,191.737072 C205.091243,192.502326 204.490681,193.563691 204.095668,194.67857 C204.102818,193.544069 204.109967,192.411351 204.088519,191.27685 C191.542844,191.269715 178.997169,191.292904 166.449707,191.266147 C169.402472,189.097037 172.196159,186.701384 174.634156,183.961456 C180.359159,177.641427 184.400442,169.823 186.268263,161.514026 C187.503348,156.2732 187.746432,150.846858 187.358569,145.491869 C186.593567,136.735159 183.51926,128.190722 178.505638,120.960951 C174.426819,115.076171 169.107553,110.051186 162.991112,106.317677 C157.140991,102.732225 150.550893,100.365112 143.75167,99.4107755 C141.092037,98.9755265 138.391294,99.0094188 135.706637,98.9737427 C127.043169,98.9862293 118.274244,101.12323 110.890545,105.729021 C104.668649,109.574909 99.628215,115.138604 95.8979368,121.383713 C96.3143981,120.101156 96.9149604,118.888167 97.4797749,117.666259 C100.45935,111.488935 104.309384,105.757562 108.625925,100.436465 C113.119418,94.9066621 118.138403,89.8156762 123.482692,85.106425 C134.137311,75.7788967 146.041313,67.8409544 158.871183,61.8134696 C158.847947,61.2658408 158.726404,60.7306986 158.612012,60.1955564 C149.966417,60.1188527 141.320822,60.2740439 132.67344,60.2615573 C122.424559,60.282963 112.177465,60.2544221 101.928583,60.3329096 C93.7655831,60.3917752 85.6025832,60.3239905 77.4413706,60.3989105 C61.24585,60.5683721 45.0467545,60.3971266 28.8512339,60.6111835 C28.6957312,61.0928115 28.5312915,61.5708718 28.3471906,62.0417969 C28.8708952,62.494884 29.4446467,62.883754 29.9951621,63.2993811 C35.1070911,67.0792687 40.1421625,70.9768876 44.8483545,75.2544574 C52.2284786,81.8634633 58.8775612,89.3322644 64.2307875,97.6786986 C70.0844825,106.695844 74.520779,116.562082 78.0615941,126.688756 C80.7873605,134.487562 83.0090835,142.454045 84.9323128,150.484745 C85.8099202,154.032738 86.5070014,157.625326 87.4704034,161.153697 C89.316775,167.778757 92.0586278,174.216517 96.0909746,179.823023 C99.9195593,185.176229 104.854537,189.749911 110.536643,193.090982 C116.399275,196.556919 122.958988,198.745651 129.652755,199.928315 C134.299963,200.784543 139.027604,201.141304 143.748095,201.17698 C163.850845,201.244765 183.953596,201.191251 204.054558,201.184116 C204.086731,199.692853 204.143928,198.199806 204.07422,196.710327 C204.46387,198.583325 205.843734,200.254752 207.670444,200.88622 C209.313053,201.498066 212.048594,201.171629 213.446332,200.129885 C214.434429,199.408634 215.000998,198.355766 215.199037,197.199207 C215.200246,197.916818 215.203712,198.634482 215.211433,199.352145 C220.888177,201.155575 226.539897,203.04641 232.232727,204.792758 L232.232727,186.496246 C230.854651,186.792358 229.560582,187.377447 228.223616,187.810912 C223.880264,189.325365 219.540486,190.848736 215.202496,192.375675 C215.20396,193.327762 215.201526,194.280149 215.199861,195.232712 Z M26.1862387,52.0613953 C26.468646,52.007881 26.7599902,52.0114487 27.0477596,52.0096649 L161.97945,52.0096649 C162.849908,51.9115555 163.530903,52.5786994 164.058182,53.1798424 C164.892892,54.1234765 164.9626,55.5362518 164.517541,56.6725371 C164.084993,57.6625501 163.10193,58.4991557 161.991962,58.5383995 C116.946215,58.533048 71.9004685,58.5348319 26.8547218,58.5366157 C25.7930134,58.5045071 24.7044943,57.922986 24.2487104,56.9365405 C23.9108941,56.303289 24.0217121,55.5665766 24.0038383,54.8780269 C23.928768,53.5758476 24.9654529,52.3931834 26.1862387,52.0613953 Z M132.890552,113.907777 C135.165897,113.599179 137.468052,113.631287 139.754121,113.772208 C141.327022,113.765073 142.8749,114.080806 144.419203,114.353729 C151.627738,115.754018 158.382276,119.380498 163.544252,124.592783 C168.443482,129.460793 171.919951,135.732659 173.464254,142.457613 C175.019282,149.262837 174.602821,156.514014 172.239894,163.087344 C168.831345,172.801958 161.124129,180.87547 151.622376,184.849792 C144.215441,188.005347 135.759309,188.547625 127.969873,186.560464 C121.635371,184.899739 115.728055,181.560452 111.125531,176.901147 C105.808052,171.703133 102.161781,164.831907 100.798004,157.532568 C100.086624,154.159388 100.113435,150.680964 100.310048,147.256054 C101.016066,139.833632 104.006366,132.634186 108.843037,126.942057 C114.816487,119.760449 123.610435,115.013738 132.890552,113.907777 Z M137.466769,127.918799 C137.826743,127.684126 138.342028,127.63922 138.675875,127.947771 C139.321796,128.544595 139.716606,129.351465 140.101256,130.129364 C140.690568,131.436001 141.168115,132.819415 141.26972,134.257875 C141.320523,135.374746 141.36552,136.495962 141.285687,137.614282 C140.915552,140.825829 139.543877,143.944665 137.305652,146.295744 C137.108246,146.553595 136.66844,146.752053 136.791818,147.134484 C137.093731,148.55556 137.359357,149.985329 137.684495,151.403509 C138.953113,151.248509 140.284146,151.399163 141.407613,152.040893 C143.63713,153.263512 144.973969,155.808703 144.959454,158.317678 C145.066865,160.16899 144.409332,162.060862 143.102975,163.389228 C142.383027,164.161332 141.465674,164.717595 140.507678,165.147829 C140.789271,167.758207 141.906932,170.283118 141.628243,172.949991 C141.564376,173.911862 141.127472,174.827377 140.446715,175.508219 C138.436376,177.61883 134.778576,177.799905 132.540351,175.947145 C131.667994,175.208359 131.101906,174.085694 131.116421,172.934056 C131.081585,171.411577 132.08748,169.836949 133.592694,169.425546 C135.10952,169.085125 136.69747,170.304847 136.91955,171.799802 C136.942775,172.564663 137.048735,173.428029 136.539255,174.071208 C136.092191,174.728872 135.317086,175.009901 134.579719,175.192424 C134.457793,175.387985 134.691486,175.461864 134.822121,175.551677 C135.835274,176.135463 137.131471,176.026818 138.147526,175.505322 C138.970531,175.079433 139.774667,174.440601 140.062065,173.525085 C140.594769,171.966391 140.358173,170.272977 139.956105,168.714283 C139.713703,167.710403 139.461141,166.70942 139.182451,165.717129 C137.646756,165.890961 136.061709,165.990915 134.565204,165.528811 C131.715894,164.73353 129.396384,162.504134 128.223566,159.825671 C127.224928,157.690434 127.100098,155.230711 127.599417,152.949165 C128.033418,151.045705 129.090116,149.356636 130.268741,147.824017 C131.443011,146.307333 132.766786,144.912331 134.113785,143.547749 C134.292321,143.350739 134.530368,143.192842 134.645037,142.949477 C134.576816,142.416392 134.408442,141.903588 134.308287,141.377746 C133.878641,139.475733 133.822032,137.511431 133.919283,135.570307 C134.077498,133.56979 134.527465,131.537403 135.579809,129.806326 C136.048646,129.042913 136.704727,128.392492 137.466769,127.918799 Z M138.063339,132.44133 C138.571367,132.186376 139.30583,132.322545 139.549683,132.877359 C139.985135,133.852267 139.867563,134.969137 139.577262,135.968672 C139.061976,137.725824 138.130108,139.346808 136.970353,140.759193 C136.59151,141.190876 136.214118,141.637045 135.736571,141.965877 C134.946951,139.598864 135.328698,136.979795 136.266372,134.711287 C136.656827,133.830538 137.11115,132.832452 138.063339,132.44133 Z M135.151614,148.352756 C135.301119,148.207896 135.479654,148.099251 135.662544,148.000747 C135.916558,149.223365 136.167669,150.447433 136.383944,151.678743 C134.428763,152.668137 132.951127,154.567252 132.572284,156.730012 C132.53019,157.357256 132.521481,157.993192 132.598411,158.618987 C132.911937,160.128429 133.949765,161.440861 135.293861,162.183993 C135.797535,162.463573 136.40862,162.780816 136.974708,162.475162 C137.009544,161.858058 136.311369,161.707403 135.922364,161.397403 C134.781479,160.554317 134.234261,158.956511 134.735031,157.61221 C135.180644,156.577909 136.016712,155.645011 137.103892,155.275618 C137.723686,158.136603 138.286871,161.010627 138.870377,163.878855 C138.87328,164.04979 139.054719,164.417735 138.745548,164.41194 C136.884714,164.850866 134.833733,164.700212 133.147081,163.758621 C131.376241,162.793854 130.036499,161.026561 129.708458,159.027493 C129.322357,156.677863 130.136653,154.287672 131.476395,152.369725 C132.554866,150.906639 133.814775,149.582618 135.151614,148.352756 Z M138.417507,155.080057 C139.350826,155.136552 140.282695,155.455244 140.995385,156.073796 C142.866379,157.668705 143.220547,160.767262 141.721139,162.721424 C141.304556,163.219742 140.809592,163.696332 140.179638,163.900584 C139.597583,160.958477 138.985046,158.023613 138.417507,155.080057 Z" id="Combined-Shape"></path>
        </g>
    </g>
</svg>