<?xml version="1.0" encoding="UTF-8"?>
<svg width="256px" height="256px" viewBox="0 0 256 256" version="1.1" xmlns="http://www.w3.org/2000/svg" xmlns:xlink="http://www.w3.org/1999/xlink">
    <!-- Generator: Sketch 39 (31667) - http://www.bohemiancoding.com/sketch -->
    <title>MGK</title>
    <desc>Created with Sketch.</desc>
    <defs></defs>
    <g id="Page-1" stroke="none" stroke-width="1" fill="none" fill-rule="evenodd">
        <g id="MGK">
            <rect id="Rectangle-55" x="0" y="0" width="256" height="256"></rect>
            <g id="Group" transform="translate(18.000000, 65.000000)" fill="#FFFFFF">
                <path d="M72.6696833,66.841954 L72.6696833,59.8821839 L65.2036199,59.8821839 L65.2036199,66.841954 L72.6696833,66.841954 Z M72.6696833,72.8074713 L72.6696833,80.2643678 L65.2036199,80.2643678 L65.2036199,72.8074713 L72.6696833,72.8074713 Z M72.6696833,53.9166667 L72.6696833,49.6988271 C72.6696833,47.6403074 70.998348,45.9626437 68.9366516,45.9626437 C66.8791503,45.9626437 65.2036199,47.63539 65.2036199,49.6988271 L65.2036199,53.9166667 L72.6696833,53.9166667 Z M59.2307692,49.7031137 C59.2307692,44.342645 63.5750622,39.9971264 68.9366516,39.9971264 C74.2970624,39.9971264 78.6425339,44.3465921 78.6425339,49.7031137 L78.6425339,86.2298851 L59.2307692,86.2298851 L59.2307692,49.7031137 Z" id="Combined-Shape"></path>
                <path d="M59.2307692,86.2298851 L65.2036199,86.2298851 L65.2036199,56.6508621 C65.2036199,49.2401201 62.4800518,42.4671054 57.9796635,37.2777483 C60.9641091,34.638949 64.887334,33.0373563 69.1855204,33.0373563 C78.5318777,33.0373563 86.1085973,40.6145725 86.1085973,49.9595016 L86.1085973,86.2298851 L92.081448,86.2298851 L92.081448,49.9650474 C92.081448,37.3257167 81.830592,27.0718391 69.1855204,27.0718391 C63.1751055,27.0718391 57.7066243,29.3864815 53.622322,33.172726 C48.6379148,29.3460902 42.3997988,27.0718391 35.6304642,27.0718391 L7.10542736e-15,27.0718391 L7.10542736e-15,33.0373563 L32.3804535,33.0373563 C47.2094734,33.0373563 59.2307692,45.0529352 59.2307692,59.8821839 L59.2307692,86.2298851 Z" id="Combined-Shape"></path>
                <path d="M126.42902,27.5689655 L95.5656109,27.5689655 C88.5612208,27.5689655 82.2928308,30.7124813 78.0934595,35.6652361 C79.865508,36.6872337 81.4232431,38.0390604 82.6827632,39.6370954 C85.8323911,35.9050697 90.545818,33.5344828 95.8144796,33.5344828 C105.298283,33.5344828 112.986425,41.2262201 112.986425,50.6981251 L112.986425,67.8362069 L118.461538,67.8362069 L118.461538,50.4621738 C118.461538,43.7564975 115.576197,37.7222622 110.97877,33.5344828 L126.42902,33.5344828 L126.42902,44.4494236 L132.41688,44.4494236 L132.41688,0.697278594 L126.42902,0.697278594 L126.42902,27.5689655 Z" id="Combined-Shape"></path>
                <path d="M145.339367,67.5000303 L145.339367,45.0909681 C146.54577,45.6504257 147.890129,45.9626437 149.307414,45.9626437 L149.33512,45.9626437 C154.557145,45.9626437 158.778281,41.733793 158.778281,36.5172414 L158.778281,27.0718391 L145.335394,27.0718391 L145.335394,0.690220783 L138.872751,0.690220783 L138.872751,55.9390896 L139.366516,55.9390896 L139.366516,82.3864128 L139.366516,103.362232 C139.366516,112.570062 131.903243,120.034483 122.692308,120.034483 C113.483397,120.034483 106.0181,112.574853 106.0181,103.362232 L106.0181,101.640805 L100.045249,101.640805 L100.045249,103.352539 C100.045249,115.855593 110.184682,126 122.692308,126 C135.202683,126 145.339367,115.860386 145.339367,103.352539 L145.339367,85.7327586 L158.280543,85.7327586 L158.280543,76.2873563 C158.280543,71.0708047 154.059408,66.841954 148.837382,66.841954 L148.809676,66.841954 C147.584395,66.841954 146.413618,67.0753081 145.339367,67.5000303 Z M145.837104,33.0373563 L152.80543,33.0373563 L152.80543,36.5172414 C152.80543,38.4391288 151.241602,39.9971264 149.321267,39.9971264 C147.397017,39.9971264 145.837104,38.4352182 145.837104,36.5172414 L145.837104,33.0373563 Z M145.339367,79.7672414 L152.307692,79.7672414 L152.307692,76.2873563 C152.307692,74.3654689 150.743864,72.8074713 148.823529,72.8074713 C146.899279,72.8074713 145.339367,74.3693795 145.339367,76.2873563 L145.339367,79.7672414 Z" id="Combined-Shape"></path>
                <path d="M131.900453,97.6148983 C129.017948,98.9235179 125.816009,99.6522989 122.443439,99.6522989 C109.798367,99.6522989 99.5475113,89.3984213 99.5475113,76.7590906 L99.5475113,72.8074713 L105.520362,72.8074713 L105.520362,76.7602742 C105.520362,86.11157 113.097082,93.6867816 122.443439,93.6867816 C125.946609,93.6867816 129.2007,92.6225993 131.900452,90.7998789 L131.900452,97.6149032 Z M139.366516,92.1803899 C143.077077,88.1116149 145.339367,82.6995861 145.339367,76.7590906 L145.339367,63.3874612 C145.339367,50.7481305 135.088511,40.4942529 122.443439,40.4942529 C118.488418,40.4942529 114.768054,41.4964949 111.522327,43.2607743 C112.294056,45.0022327 112.784537,46.8957566 112.936165,48.8836102 C115.64575,47.0400915 118.918502,45.9626437 122.443439,45.9626437 C131.789796,45.9626437 139.366516,53.5378553 139.366516,62.8891511 L139.366516,73.2924934 L139.366516,92.1803899 Z" id="Combined-Shape"></path>
                <path d="M171.719457,79.7672414 L171.719457,76.809875 C171.719457,75.4446017 171.599852,74.1071615 171.370543,72.8074713 L220,72.8074713 L220,66.841954 L169.440108,66.841954 C165.733503,59.1933084 157.894548,53.9166667 148.823529,53.9166667 C147.638941,53.9166667 146.475405,54.006577 145.339367,54.1799435 L145.339367,59.8957536 C145.587119,59.8867332 145.836013,59.8821839 146.085973,59.8821839 C157.219134,59.8821839 166.244344,68.9055713 166.244344,80.0488783 L166.244344,85.7327586 L169.728507,85.7327586 L220,85.7327586 L220,79.7672414 L171.719457,79.7672414 Z M125.927602,83.7442529 L125.927602,85.1151913 L125.927602,83.7442529 L125.927602,83.7442529 Z" id="Combined-Shape"></path>
                <rect id="Rectangle-6-Copy-2" x="145.339367" y="53.9166667" width="74.6606335" height="5.96551724"></rect>
                <path d="M171.523454,39.9971264 C171.652748,39.0126871 171.719457,38.0085932 171.719457,36.9889756 L171.719457,33.0373563 L220,33.0373563 L220,27.0718391 L169.728507,27.0718391 L166.244344,27.0718391 L166.244344,33.7499722 C166.244344,44.8932792 157.219134,53.9166667 146.085973,53.9166667 C145.836013,53.9166667 145.587119,53.9121173 145.339367,53.9030969 L145.339367,59.618907 C146.475405,59.7922736 147.638941,59.8821839 148.823529,59.8821839 C158.28254,59.8821839 166.401836,54.1444955 169.892826,45.9626442 L220,45.9626437 L220,39.9971264 L171.523454,39.9971264 Z M125.927602,30.0545977 L125.927602,28.6836592 L125.927602,30.0545977 L125.927602,30.0545977 Z" id="Combined-Shape"></path>
                <path d="M112.986425,101.640805 L112.986425,103.619151 C112.986425,108.843953 117.220475,113.074713 122.443439,113.074713 C127.667552,113.074713 131.900452,108.841313 131.900452,103.619151 L131.900452,63.3722286 C131.900452,58.1474265 127.666403,53.9166667 122.443439,53.9166667 C117.219326,53.9166667 112.986425,58.1500659 112.986425,63.3722286 L112.986425,66.841954 L118.959276,66.841954 L118.959276,101.640805 L112.986425,101.640805 Z M118.959276,63.374078 C118.959276,61.4455581 120.523104,59.8821839 122.443439,59.8821839 C124.367689,59.8821839 125.927602,61.4400595 125.927602,63.374078 L125.927602,103.617301 C125.927602,105.545821 124.363773,107.109195 122.443439,107.109195 C120.519189,107.109195 118.959276,105.55132 118.959276,103.617301 L118.959276,63.374078 Z" id="Combined-Shape"></path>
                <path d="M99.5475113,66.841954 L99.5475113,59.8821839 L92.081448,59.8821839 L92.081448,66.841954 L99.5475113,66.841954 Z M99.5475113,72.8074713 L99.5475113,80.2643678 L92.081448,80.2643678 L92.081448,72.8074713 L99.5475113,72.8074713 Z M99.5475113,53.9166667 L99.5475113,49.6988271 C99.5475113,47.6403074 97.8761761,45.9626437 95.8144796,45.9626437 C93.7569783,45.9626437 92.081448,47.63539 92.081448,49.6988271 L92.081448,53.9166667 L99.5475113,53.9166667 Z M86.1085973,49.7031137 C86.1085973,44.342645 90.4528902,39.9971264 95.8144796,39.9971264 C101.17489,39.9971264 105.520362,44.3465921 105.520362,49.7031137 L105.520362,86.2298851 L86.1085973,86.2298851 L86.1085973,49.7031137 Z" id="Combined-Shape"></path>
                <path d="M46.2895928,80.2643678 L46.2895928,72.8074713 L0,72.8074713 L0,66.841954 L46.2895928,66.841954 L46.2895928,59.3850575 L0,59.3850575 L0,53.4195402 L46.1587624,53.4195402 C45.4295159,49.1793116 41.7390993,45.9626437 37.2962192,45.9626437 L0,45.9626437 L0,39.9971264 L35.258212,39.9971264 C44.6493897,39.9971264 52.2624434,47.605625 52.2624434,56.9991422 L52.2624434,83.2471264 L52.2624434,86.2298851 L0,86.2298851 L0,80.2643678 L46.2895928,80.2643678 Z" id="Combined-Shape"></path>
                <path d="M112.986425,66.841954 L131.900452,66.841954 L131.900452,76.2873563 C131.900452,81.503908 127.679317,85.7327586 122.457292,85.7327586 L122.429586,85.7327586 C117.214272,85.7327586 112.986425,81.5050549 112.986425,76.2873563 L112.986425,66.841954 Z M118.959276,72.8074713 L125.927602,72.8074713 L125.927602,76.2873563 C125.927602,78.2092438 124.363773,79.7672414 122.443439,79.7672414 C120.519189,79.7672414 118.959276,78.2053331 118.959276,76.2873563 L118.959276,72.8074713 Z" id="Combined-Shape"></path>
            </g>
        </g>
    </g>
</svg>