<svg width="256" height="256" viewBox="0 0 256 256" xmlns="http://www.w3.org/2000/svg"><desc>A rectangle with cut-out lines suggesting text, a cursor suggesting current text entry and cut-out rectangles for statistics at the bottom.</desc><path d="M138 132c1 0 1 1 1 1v19c0 1-1 1-1 1h-2c-1 0-1 1-1 1v2c0 1 1 1 1 1h4c1 0 1-1 1-1 0 1 1 1 1 1h4c1 0 1-1 1-1v-2c0-1-1-1-1-1h-2c-1 0-1-1-1-1v-19c0-1 1-1 1-1h2c1 0 1-1 1-1v-2c0-1-1-1-1-1h-4c-1 0-1 1-1 1 0-1-1-1-1-1h-4c-1 0-1 1-1 1v2c0 1 1 1 1 1h3zM27 43c-2 0-3 1-3 3v163c0 2 1 4 3 4h201c2 0 4-2 4-4V46c0-2-2-3-4-3H27zm18 20v10h166V63H45zm0 25v10h166V88H45zm0 25v10h166v-10H45zm0 25v10h83v-10H45zm0 44v10h25v-10H45zm141 0v10h25v-10h-25zm-94 0v10h25v-10H92zm47 0v10h25v-10h-25z" fill="#FFF" fill-rule="evenodd"/></svg>